<?xml version="1.0" encoding="utf-8"?>
<!-- Generator: Adobe Illustrator 23.0.5, SVG Export Plug-In . SVG Version: 6.00 Build 0)  -->
<svg version="1.1" id="Capa_1" xmlns="http://www.w3.org/2000/svg" xmlns:xlink="http://www.w3.org/1999/xlink" x="0px" y="0px"
	 viewBox="0 0 93 128" style="enable-background:new 0 0 93 128;" xml:space="preserve">
<style type="text/css">
	.st0{fill:#FFFFFF;}
</style>
<path class="st0" d="M85,21.6l-8.5-0.1c-4.4-0.2-8.8-0.3-13.1-0.3c-5.5,0-9.8,0.5-12.9,1.5c-9.1,3.1-14.5,9.9-16.5,20.5l0.6,8.9
	c2.9,8.6,8.1,14.2,15.7,16.9c6.6,2.3,16.3,1.3,23.8,1.3c0.6,0,1.1-0.5,1.1-1.1c0-0.1,0-0.3-0.1-0.4c-3.2-8.4-9.3-13.9-18.3-16.5
	l11.7-4.7c12,7.9,17.5,18.6,16.4,32.2c-1.1,12.9-10.6,24.6-23.1,28.5c-3.2,1-8,1.6-14.3,1.6c-13.1,0.1-26.2,0.2-39.4,0.1
	c-0.5,0-0.7-0.2-0.7-0.7l0-7.5c0-0.4,0.3-0.7,0.7-0.7l17,0l9-0.1c8,0.2,19.1,1.3,26.3-1.6c7.9-3.1,13.1-9.1,15.5-18.1
	c0.4-1.4-0.1-2.1-1.6-2.1L53,79.6l-11-4.8C33.3,69.2,27.9,61.5,25.9,52l-0.6-8.9c2.7-15.9,11.2-25.7,25.6-29.5
	c3-0.8,6.9-1.1,11.9-1.1c7,0.1,14,0.1,20.9,0c0.8,0,1.1,0.4,1.2,1.1L85,21.6z"/>
<path class="st0" d="M85,21.6c-1.1,10.9-6.5,19.6-16.3,25.9l-11.7,4.7c-7-0.6-14.5-0.7-22.3-0.2l-0.6-8.9c8.1,0,18.2,0.7,25-1.3
	c9.2-2.7,15-9.5,17.4-20.4L85,21.6z"/>
<path class="st0" d="M25.2,43.1l0.6,8.9H8.2c-0.3,0-0.5-0.2-0.5-0.5L7.8,44c0-0.5,0.4-0.8,0.8-0.8L25.2,43.1z"/>
<path class="st0" d="M42,74.8l11,4.8c-9.7,2.9-18.1,11-18.6,21.4l-9,0.1C26.8,89.7,32.3,80.9,42,74.8z"/>
</svg>
