<svg xmlns="http://www.w3.org/2000/svg" width="376.548" height="376.503" viewBox="0 0 376.548 376.503">
  <g id="Grupo_1" data-name="Grupo 1" transform="translate(-11.823 -13.926)">
    <path id="Trazado_1" data-name="Trazado 1" d="M365.729,209.482c-2.851,86.674-73.35,156.741-160.366,158.39-5.433.1-11.73.107-17.744-.289a161.663,161.663,0,0,1-61.039-16.122A164.65,164.65,0,0,1,61.05,293.685a162.382,162.382,0,0,1-26.483-81.1q-.428-7.912-.107-17.929a164.119,164.119,0,0,1,83.7-137.314,162.373,162.373,0,0,1,72.5-20.719q7.424-.347,16.555-.078A163.884,163.884,0,0,1,365.681,192.931C365.9,197.337,365.917,203.768,365.729,209.482Zm-1.922-7.362A163.779,163.779,0,1,0,200.028,365.9,163.779,163.779,0,0,0,363.807,202.12Z" transform="translate(0 0)" fill="none" stroke="#fff" stroke-miterlimit="10" stroke-width="45"/>
    <rect id="Rect치ngulo_1" data-name="Rect치ngulo 1" width="176.767" height="7.807" rx="3.904" transform="translate(110.999 201.635)" fill="none" stroke="#fff" stroke-miterlimit="10" stroke-width="30"/>
    <path id="Trazado_2" data-name="Trazado 2" d="M195.039,234.879H311.377c1.352,0,2.448,1.875,2.448,4.188v.782c0,2.313-1.1,4.188-2.448,4.188H195.039c-1.352,0-2.448-1.875-2.448-4.187v-.782C192.591,236.754,193.687,234.879,195.039,234.879Z" transform="translate(-79.939 -100.235)" fill="none" stroke="#fff" stroke-miterlimit="10" stroke-width="30"/>
    <rect id="Rect치ngulo_2" data-name="Rect치ngulo 2" width="176.767" height="7.807" rx="3.904" transform="translate(110.415 268.627)" fill="none" stroke="#fff" stroke-miterlimit="10" stroke-width="30"/>
    <path id="Trazado_3" data-name="Trazado 3" d="M233.375,257.349l-1.194,54.308c-.014.631-8.7.952-19.406.717l-3.62-.08c-10.7-.235-19.37-.937-19.356-1.569l1.194-54.308c.014-.632,8.7-.952,19.406-.717l3.62.08C224.723,256.015,233.389,256.717,233.375,257.349Z" transform="translate(-78.528 -110.713)" fill="none" stroke="#fff" stroke-miterlimit="10" stroke-width="30"/>
    <path id="Trazado_4" data-name="Trazado 4" d="M503.767,389.35l-1.229,55.921c-.014.65-8.7.986-19.407.751l-3.62-.08c-10.7-.235-19.37-.953-19.355-1.6l1.229-55.921c.014-.65,8.7-.986,19.407-.751l3.62.079C495.116,387.982,503.782,388.7,503.767,389.35Z" transform="translate(-215.081 -177.368)" fill="none" stroke="#fff" stroke-miterlimit="10" stroke-width="30"/>
    <circle id="Elipse_1" data-name="Elipse 1" cx="12.813" cy="12.813" r="12.813" transform="translate(262.786 126.41)" fill="none" stroke="#fff" stroke-miterlimit="10" stroke-width="10"/>
  </g>
</svg>
