<?xml version="1.0" encoding="UTF-8" standalone="no"?>
<!DOCTYPE svg PUBLIC "-//W3C//DTD SVG 1.1//EN" "http://www.w3.org/Graphics/SVG/1.1/DTD/svg11.dtd">
<svg xmlns="http://www.w3.org/2000/svg" version="1.1" viewBox="0.00 0.00 500.00 500.00">
<g stroke-width="2.00" fill="none" stroke-linecap="butt">
<path stroke="#4b7d88" vector-effect="non-scaling-stroke" d="
  M 242.20 224.14
  L 241.17 224.14"
/>
<path stroke="#9f782c" vector-effect="non-scaling-stroke" d="
  M 287.53 270.51
  L 219.10 270.51"
/>
<path stroke="#4b7d88" vector-effect="non-scaling-stroke" d="
  M 249.86 224.18
  L 248.89 224.14"
/>
<path stroke="#9f782c" vector-effect="non-scaling-stroke" d="
  M 295.57 281.87
  Q 292.80 282.97 290.75 282.99
  Q 256.32 283.25 211.35 282.72"
/>
<path stroke="#4b7d88" vector-effect="non-scaling-stroke" d="
  M 234.74 224.12
  Q 233.92 224.32 233.45 224.11"
/>
<path stroke="#4b7d88" vector-effect="non-scaling-stroke" d="
  M 273.20 224.34
  L 272.04 224.32"
/>
<path stroke="#4b7d88" vector-effect="non-scaling-stroke" d="
  M 265.45 224.34
  L 264.37 224.33"
/>
<path stroke="#4b7d88" vector-effect="non-scaling-stroke" d="
  M 257.68 224.26
  Q 257.13 224.41 256.62 224.26"
/>
<path stroke="#5f7941" vector-effect="non-scaling-stroke" d="
  M 253.05 355.65
  C 251.45 335.10 247.54 313.48 240.84 292.60
  A 0.36 0.36 0.0 0 0 240.14 292.65
  C 239.08 298.88 238.79 306.78 238.28 311.43
  Q 235.57 335.94 233.18 360.47
  C 233.11 361.18 232.72 361.77 232.59 362.50"
/>
<path stroke="#88bd40" vector-effect="non-scaling-stroke" d="
  M 149.82 346.14
  Q 156.06 364.98 159.95 384.56
  C 161.32 391.49 162.33 399.83 163.53 407.46
  A 0.68 0.67 -40.5 0 0 164.84 407.56
  C 166.77 401.68 168.59 395.91 171.23 390.12
  Q 173.80 384.48 176.11 379.28"
/>
<path stroke="#69843f" vector-effect="non-scaling-stroke" d="
  M 211.31 312.77
  L 213.15 311.37
  Q 213.82 310.87 213.70 311.69
  L 210.54 333.18"
/>
<path stroke="#69843f" vector-effect="non-scaling-stroke" d="
  M 211.46 382.51
  Q 221.41 371.17 232.59 362.50"
/>
<path stroke="#88bd40" vector-effect="non-scaling-stroke" d="
  M 232.59 362.50
  Q 233.02 362.49 233.23 362.73
  Q 233.39 362.92 233.32 363.30
  Q 231.74 371.78 229.96 380.30"
/>
<path stroke="#69843f" vector-effect="non-scaling-stroke" d="
  M 229.96 380.30
  L 226.47 395.74
  Q 225.52 399.96 227.54 396.13
  L 230.73 390.08"
/>
<path stroke="#88bd40" vector-effect="non-scaling-stroke" d="
  M 230.73 390.08
  Q 240.94 371.53 253.05 355.65"
/>
<path stroke="#69843f" vector-effect="non-scaling-stroke" d="
  M 253.05 355.65
  Q 271.97 332.80 295.58 316.13"
/>
<path stroke="#69843f" vector-effect="non-scaling-stroke" d="
  M 295.39 320.91
  L 251.80 401.75
  A 0.32 0.32 0.0 0 0 252.28 402.16
  C 254.29 400.66 256.50 398.08 257.77 397.03
  Q 274.83 383.01 295.52 376.65"
/>
<path stroke="#69843f" vector-effect="non-scaling-stroke" d="
  M 295.65 401.82
  Q 294.42 402.93 293.92 404.26
  Q 293.64 405.00 294.24 404.48
  L 296.05 402.88"
/>
<path stroke="#88bd40" vector-effect="non-scaling-stroke" d="
  M 376.91 386.05
  Q 391.36 378.49 406.94 373.32
  A 1.02 1.02 0.0 0 1 408.25 374.51
  Q 406.07 384.01 402.64 393.65
  Q 401.67 396.36 398.43 401.43
  C 397.66 402.64 397.88 404.30 397.02 405.59
  Q 394.20 409.77 392.28 414.43
  Q 392.07 414.93 392.37 415.27
  Q 392.62 415.55 392.80 415.23
  Q 396.03 409.40 401.17 405.17
  Q 404.95 402.06 406.85 399.16"
/>
<path stroke="#5f7941" vector-effect="non-scaling-stroke" d="
  M 230.73 390.08
  L 230.83 380.23
  Q 230.84 379.58 230.33 379.99
  L 229.96 380.30"
/>
</g>
<ellipse fill="#56bad0" cx="0.00" cy="0.00" transform="translate(77.89,79.79) rotate(79.5)" rx="1.26" ry="0.91"/>
<ellipse fill="#56bad0" cx="0.00" cy="0.00" transform="translate(101.22,79.61) rotate(89.7)" rx="1.04" ry="0.80"/>
<path fill="#56bad0" d="
  M 124.94 78.92
  L 125.47 79.88
  A 0.54 0.54 0.0 0 1 124.80 80.65
  Q 123.73 80.22 124.08 79.02
  Q 124.39 77.94 124.94 78.92
  Z"
/>
<path fill="#56bad0" d="
  M 172.12 79.31
  L 172.27 80.09
  Q 172.40 80.78 171.71 80.64
  Q 170.60 80.40 170.76 79.33
  A 0.69 0.69 0.0 0 1 172.12 79.31
  Z"
/>
<path fill="#56bad0" d="
  M 194.22 78.68
  A 0.27 0.26 -59.5 0 1 194.68 78.56
  L 195.69 79.72
  A 0.52 0.51 52.8 0 1 195.59 80.48
  Q 194.81 81.02 194.35 80.41
  Q 193.95 79.89 194.22 78.68
  Z"
/>
<ellipse fill="#56bad0" cx="0.00" cy="0.00" transform="translate(218.20,79.76) rotate(90.9)" rx="1.13" ry="0.73"/>
<path fill="#56bad0" d="
  M 242.38 79.71
  A 0.58 0.57 -27.1 0 1 242.19 80.28
  Q 241.38 80.98 240.78 80.11
  A 0.93 0.92 -85.7 0 1 242.17 78.91
  Q 242.20 78.94 242.38 79.71
  Z"
/>
<ellipse fill="#56bad0" cx="0.00" cy="0.00" transform="translate(311.79,79.67) rotate(86.7)" rx="1.03" ry="0.70"/>
<ellipse fill="#56bad0" cx="0.00" cy="0.00" transform="translate(335.13,79.69) rotate(95.1)" rx="1.08" ry="0.79"/>
<ellipse fill="#56bad0" cx="0.00" cy="0.00" transform="translate(358.48,79.62) rotate(113.8)" rx="1.04" ry="0.83"/>
<ellipse fill="#56bad0" cx="0.00" cy="0.00" transform="translate(381.95,79.64) rotate(95.1)" rx="0.99" ry="0.83"/>
<path fill="#56bad0" d="
  M 406.00 80.07
  Q 405.26 80.96 404.62 80.37
  Q 404.22 79.99 404.58 79.57
  L 405.30 78.73
  Q 405.78 78.16 406.02 78.86
  L 406.16 79.24
  A 0.85 0.84 -34.2 0 1 406.00 80.07
  Z"
/>
<path fill="#56bad0" d="
  M 429.62 79.62
  A 0.66 0.65 -5.8 0 1 428.98 80.40
  L 428.17 80.41
  A 0.49 0.49 0.0 0 1 427.79 79.60
  L 428.57 78.69
  A 0.52 0.52 0.0 0 1 429.47 78.93
  L 429.62 79.62
  Z"
/>
<ellipse fill="#56bad0" cx="0.00" cy="0.00" transform="translate(148.01,79.66) rotate(78.6)" rx="1.02" ry="0.80"/>
<ellipse fill="#56bad0" cx="0.00" cy="0.00" transform="translate(264.96,79.76) rotate(91.3)" rx="1.02" ry="0.69"/>
<path fill="#56bad0" d="
  M 289.20 79.72
  A 0.57 0.57 0.0 0 1 289.10 80.23
  Q 288.39 81.07 287.77 80.37
  A 0.94 0.94 0.0 0 1 288.93 78.92
  Q 288.97 78.94 289.20 79.72
  Z"
/>
<ellipse fill="#56bad0" cx="0.00" cy="0.00" transform="translate(81.40,84.03) rotate(43.8)" rx="1.47" ry="0.94"/>
<path fill="#56bad0" d="
  M 103.67 83.25
  A 0.72 0.72 0.0 0 1 105.05 83.16
  L 105.68 84.89
  Q 105.99 85.74 105.11 85.54
  Q 103.25 85.11 103.67 83.25
  Z"
/>
<ellipse fill="#56bad0" cx="0.00" cy="0.00" transform="translate(425.11,84.04) rotate(134.2)" rx="1.58" ry="0.81"/>
<path fill="#56bad0" d="
  M 377.69 85.16
  L 378.61 83.43
  A 0.75 0.74 64.3 0 1 380.00 83.92
  Q 379.79 85.13 378.65 85.99
  A 0.65 0.65 0.0 0 1 377.69 85.16
  Z"
/>
<path fill="#56bad0" d="
  M 401.93 85.31
  Q 400.92 85.41 401.07 84.42
  Q 401.25 83.13 402.53 83.11
  A 0.72 0.72 0.0 0 1 403.26 83.91
  Q 403.12 85.18 401.93 85.31
  Z"
/>
<ellipse fill="#56bad0" cx="0.00" cy="0.00" transform="translate(127.64,84.65) rotate(57.8)" rx="1.61" ry="0.75"/>
<path fill="#56bad0" d="
  M 354.84 85.40
  L 355.74 83.60
  A 0.61 0.61 0.0 0 1 356.88 83.73
  Q 357.22 85.19 355.94 86.26
  A 0.71 0.71 0.0 0 1 354.84 85.40
  Z"
/>
<path fill="#56bad0" d="
  M 150.42 86.18
  L 149.60 84.35
  Q 149.34 83.78 149.94 83.60
  L 150.28 83.49
  A 0.99 0.98 -18.0 0 1 151.49 84.10
  Q 152.26 86.32 150.82 86.42
  A 0.43 0.42 -13.7 0 1 150.42 86.18
  Z"
/>
<path fill="#56bad0" d="
  M 173.45 86.38
  L 172.53 84.72
  A 0.78 0.78 0.0 0 1 173.83 83.86
  Q 174.73 85.03 174.30 86.30
  A 0.47 0.47 0.0 0 1 173.45 86.38
  Z"
/>
<path fill="#56bad0" d="
  M 196.26 86.72
  L 195.22 84.52
  A 0.69 0.69 0.0 0 1 196.18 83.63
  Q 198.03 84.70 196.86 86.74
  A 0.34 0.34 0.0 0 1 196.26 86.72
  Z"
/>
<path fill="#56bad0" d="
  M 332.71 83.61
  A 0.29 0.29 0.0 0 1 333.08 83.46
  L 333.51 83.63
  A 1.15 1.10 22.2 0 1 334.16 85.08
  L 333.82 85.92
  A 1.15 1.10 22.2 0 1 332.34 86.50
  L 331.91 86.33
  A 0.29 0.29 0.0 0 1 331.75 85.95
  L 332.71 83.61
  Z"
/>
<ellipse fill="#56bad0" cx="0.00" cy="0.00" transform="translate(241.99,85.36) rotate(87.8)" rx="1.50" ry="0.95"/>
<ellipse fill="#56bad0" cx="0.00" cy="0.00" transform="translate(310.25,85.23) rotate(106.1)" rx="1.50" ry="0.91"/>
<ellipse fill="#56bad0" cx="0.00" cy="0.00" transform="translate(219.12,85.45) rotate(93.0)" rx="1.46" ry="0.96"/>
<ellipse fill="#56bad0" cx="0.00" cy="0.00" transform="translate(264.75,85.45) rotate(94.1)" rx="1.41" ry="0.84"/>
<ellipse fill="#56bad0" cx="0.00" cy="0.00" transform="translate(287.46,85.45) rotate(102.6)" rx="1.45" ry="0.92"/>
<path fill="#56bad0" d="
  M 84.35 88.42
  A 0.56 0.55 33.2 0 1 84.30 88.19
  Q 84.30 87.34 84.98 87.49
  Q 86.42 87.82 86.54 89.25
  A 0.87 0.87 0.0 0 1 84.87 89.66
  L 84.35 88.42
  Z"
/>
<ellipse fill="#56bad0" cx="0.00" cy="0.00" transform="translate(421.22,88.74) rotate(130.2)" rx="1.57" ry="0.85"/>
<ellipse fill="#56bad0" cx="0.00" cy="0.00" transform="translate(398.43,89.37) rotate(129.3)" rx="1.48" ry="0.95"/>
<ellipse fill="#56bad0" cx="0.00" cy="0.00" transform="translate(108.21,89.41) rotate(45.3)" rx="1.42" ry="0.94"/>
<ellipse fill="#56bad0" cx="0.00" cy="0.00" transform="translate(131.01,90.04) rotate(65.2)" rx="1.54" ry="0.88"/>
<ellipse fill="#56bad0" cx="0.00" cy="0.00" transform="translate(153.31,90.31) rotate(69.1)" rx="1.54" ry="0.92"/>
<ellipse fill="#56bad0" cx="0.00" cy="0.00" transform="translate(375.67,90.08) rotate(122.9)" rx="1.52" ry="0.92"/>
<ellipse fill="#56bad0" cx="0.00" cy="0.00" transform="translate(353.30,90.39) rotate(116.8)" rx="1.41" ry="0.83"/>
<ellipse fill="#56bad0" cx="0.00" cy="0.00" transform="translate(175.74,90.87) rotate(77.5)" rx="1.48" ry="0.79"/>
<path fill="#56bad0" d="
  M 330.09 90.22
  Q 330.25 89.66 330.81 89.40
  A 0.71 0.71 0.0 0 1 331.77 89.81
  Q 332.36 91.44 330.75 92.26
  Q 330.26 92.50 330.06 92.00
  Q 329.77 91.28 330.09 90.22
  Z"
/>
<ellipse fill="#56bad0" cx="0.00" cy="0.00" transform="translate(308.69,91.25) rotate(95.6)" rx="1.58" ry="0.86"/>
<ellipse fill="#56bad0" cx="0.00" cy="0.00" transform="translate(197.99,91.33) rotate(81.3)" rx="1.55" ry="0.90"/>
<ellipse fill="#56bad0" cx="0.00" cy="0.00" transform="translate(220.18,91.66) rotate(85.9)" rx="1.63" ry="0.94"/>
<ellipse fill="#56bad0" cx="0.00" cy="0.00" transform="translate(242.33,91.67) rotate(79.9)" rx="1.64" ry="0.88"/>
<ellipse fill="#56bad0" cx="0.00" cy="0.00" transform="translate(264.38,91.63) rotate(104.5)" rx="1.62" ry="0.94"/>
<ellipse fill="#56bad0" cx="0.00" cy="0.00" transform="translate(286.41,91.68) rotate(94.7)" rx="1.57" ry="0.85"/>
<ellipse fill="#56bad0" cx="0.00" cy="0.00" transform="translate(89.31,93.56) rotate(48.9)" rx="1.53" ry="0.85"/>
<path fill="#56bad0" d="
  M 417.75 94.39
  A 0.84 0.82 25.7 0 1 416.93 94.67
  L 416.26 94.53
  Q 415.53 94.37 416.06 93.84
  L 417.47 92.42
  Q 418.04 91.86 418.21 92.64
  Q 418.41 93.59 417.75 94.39
  Z"
/>
<ellipse fill="#56bad0" cx="0.00" cy="0.00" transform="translate(111.83,94.48) rotate(71.0)" rx="1.38" ry="0.93"/>
<ellipse fill="#56bad0" cx="0.00" cy="0.00" transform="translate(394.78,94.48) rotate(125.0)" rx="1.40" ry="0.96"/>
<ellipse fill="#56bad0" cx="0.00" cy="0.00" transform="translate(372.47,95.37) rotate(121.0)" rx="1.64" ry="0.86"/>
<path fill="#56bad0" d="
  M 135.12 96.02
  Q 135.27 96.29 135.22 96.41
  A 1.05 0.82 34.2 0 1 133.71 96.51
  Q 132.83 95.74 133.33 94.45
  A 0.60 0.60 0.0 0 1 134.18 94.14
  Q 135.05 94.62 135.02 95.62
  Q 135.02 95.84 135.12 96.02
  Z"
/>
<ellipse fill="#56bad0" cx="0.00" cy="0.00" transform="translate(156.16,96.00) rotate(72.7)" rx="1.48" ry="0.89"/>
<ellipse fill="#56bad0" cx="0.00" cy="0.00" transform="translate(350.54,96.09) rotate(112.6)" rx="1.41" ry="0.81"/>
<ellipse fill="#56bad0" cx="0.00" cy="0.00" transform="translate(178.03,96.69) rotate(80.3)" rx="1.45" ry="0.88"/>
<ellipse fill="#56bad0" cx="0.00" cy="0.00" transform="translate(328.71,96.63) rotate(113.0)" rx="1.53" ry="0.88"/>
<ellipse fill="#56bad0" cx="0.00" cy="0.00" transform="translate(306.91,97.25) rotate(104.1)" rx="1.58" ry="0.88"/>
<ellipse fill="#56bad0" cx="0.00" cy="0.00" transform="translate(199.62,97.34) rotate(77.4)" rx="1.56" ry="0.90"/>
<ellipse fill="#56bad0" cx="0.00" cy="0.00" transform="translate(242.72,97.95) rotate(88.5)" rx="1.68" ry="0.81"/>
<ellipse fill="#56bad0" cx="0.00" cy="0.00" transform="translate(221.21,98.00) rotate(80.1)" rx="1.62" ry="0.81"/>
<ellipse fill="#56bad0" cx="0.00" cy="0.00" transform="translate(263.94,98.01) rotate(92.2)" rx="1.60" ry="0.95"/>
<ellipse fill="#56bad0" cx="0.00" cy="0.00" transform="translate(285.37,98.00) rotate(92.3)" rx="1.52" ry="0.75"/>
<path fill="#56bad0" d="
  M 94.39 99.02
  A 0.46 0.46 0.0 0 1 93.72 99.60
  L 92.96 99.11
  A 0.77 0.74 19.2 0 1 92.61 98.41
  Q 92.83 95.62 94.39 99.02
  Z"
/>
<ellipse fill="#56bad0" cx="0.00" cy="0.00" transform="translate(413.42,98.36) rotate(131.8)" rx="1.44" ry="0.76"/>
<path fill="#56bad0" d="
  M 390.03 100.05
  L 391.32 98.17
  A 0.42 0.42 0.0 0 1 392.09 98.45
  L 391.95 100.03
  Q 391.89 100.71 391.22 100.65
  L 390.27 100.56
  A 0.33 0.33 0.0 0 1 390.03 100.05
  Z"
/>
<ellipse fill="#56bad0" cx="0.00" cy="0.00" transform="translate(115.33,99.52) rotate(54.9)" rx="1.44" ry="0.93"/>
<ellipse fill="#56bad0" cx="0.00" cy="0.00" transform="translate(137.38,100.85) rotate(61.5)" rx="1.69" ry="0.93"/>
<ellipse fill="#56bad0" cx="0.00" cy="0.00" transform="translate(369.31,100.86) rotate(111.3)" rx="1.52" ry="0.86"/>
<ellipse fill="#56bad0" cx="0.00" cy="0.00" transform="translate(158.91,101.62) rotate(71.5)" rx="1.55" ry="0.93"/>
<path fill="#56bad0" d="
  M 346.99 102.07
  L 347.29 100.95
  A 0.73 0.73 0.0 0 1 348.72 101.01
  Q 348.94 102.31 347.71 102.74
  Q 346.71 103.10 346.99 102.07
  Z"
/>
<ellipse fill="#56bad0" cx="0.00" cy="0.00" transform="translate(180.17,102.40) rotate(65.3)" rx="1.48" ry="0.92"/>
<path fill="#56bad0" d="
  M 326.54 103.80
  Q 326.20 104.34 325.87 103.79
  L 325.35 102.92
  A 0.88 0.88 0.0 0 1 325.72 101.68
  Q 328.80 100.19 326.54 103.80
  Z"
/>
<ellipse fill="#56bad0" cx="0.00" cy="0.00" transform="translate(97.00,103.09) rotate(54.8)" rx="1.50" ry="0.76"/>
<ellipse fill="#56bad0" cx="0.00" cy="0.00" transform="translate(305.29,103.30) rotate(104.2)" rx="1.52" ry="0.90"/>
<ellipse fill="#56bad0" cx="0.00" cy="0.00" transform="translate(409.50,103.18) rotate(119.7)" rx="1.55" ry="0.85"/>
<ellipse fill="#56bad0" cx="0.00" cy="0.00" transform="translate(201.21,103.30) rotate(75.7)" rx="1.42" ry="0.79"/>
<ellipse fill="#56bad0" cx="0.00" cy="0.00" transform="translate(222.19,104.22) rotate(80.6)" rx="1.51" ry="1.01"/>
<ellipse fill="#56bad0" cx="0.00" cy="0.00" transform="translate(242.96,104.28) rotate(78.9)" rx="1.50" ry="0.89"/>
<ellipse fill="#56bad0" cx="0.00" cy="0.00" transform="translate(263.75,104.25) rotate(95.5)" rx="1.47" ry="0.83"/>
<ellipse fill="#56bad0" cx="0.00" cy="0.00" transform="translate(284.36,104.27) rotate(97.6)" rx="1.51" ry="0.77"/>
<ellipse fill="#56bad0" cx="0.00" cy="0.00" transform="translate(118.93,104.69) rotate(61.4)" rx="1.49" ry="0.83"/>
<ellipse fill="#56bad0" cx="0.00" cy="0.00" transform="translate(387.67,104.57) rotate(129.8)" rx="1.45" ry="0.86"/>
<ellipse fill="#56bad0" cx="0.00" cy="0.00" transform="translate(140.63,106.29) rotate(57.4)" rx="1.55" ry="0.89"/>
<ellipse fill="#56bad0" cx="0.00" cy="0.00" transform="translate(365.96,106.24) rotate(122.7)" rx="1.59" ry="0.81"/>
<ellipse fill="#56bad0" cx="0.00" cy="0.00" transform="translate(161.57,107.25) rotate(68.4)" rx="1.53" ry="0.87"/>
<ellipse fill="#56bad0" cx="0.00" cy="0.00" transform="translate(344.98,107.27) rotate(106.7)" rx="1.34" ry="0.81"/>
<path fill="#56bad0" d="
  M 101.42 109.12
  Q 100.21 108.70 99.81 107.55
  A 0.82 0.82 0.0 0 1 101.30 106.87
  L 102.11 108.28
  A 0.58 0.58 0.0 0 1 101.42 109.12
  Z"
/>
<ellipse fill="#56bad0" cx="0.00" cy="0.00" transform="translate(324.30,108.15) rotate(106.9)" rx="1.54" ry="0.92"/>
<path fill="#56bad0" d="
  M 405.13 109.22
  Q 404.25 109.46 404.58 108.62
  L 405.28 106.77
  A 0.72 0.72 0.0 0 1 406.66 106.90
  Q 406.99 108.72 405.13 109.22
  Z"
/>
<ellipse fill="#56bad0" cx="0.00" cy="0.00" transform="translate(182.25,108.27) rotate(80.4)" rx="1.42" ry="0.85"/>
<ellipse fill="#56bad0" cx="0.00" cy="0.00" transform="translate(203.04,109.38) rotate(82.3)" rx="1.62" ry="0.83"/>
<ellipse fill="#56bad0" cx="0.00" cy="0.00" transform="translate(303.81,109.32) rotate(95.5)" rx="1.45" ry="0.87"/>
<ellipse fill="#56bad0" cx="0.00" cy="0.00" transform="translate(122.57,109.68) rotate(62.3)" rx="1.45" ry="0.89"/>
<ellipse fill="#56bad0" cx="0.00" cy="0.00" transform="translate(384.03,109.67) rotate(108.6)" rx="1.38" ry="0.91"/>
<ellipse fill="#56bad0" cx="0.00" cy="0.00" transform="translate(243.32,110.46) rotate(85.6)" rx="1.58" ry="0.78"/>
<ellipse fill="#56bad0" cx="0.00" cy="0.00" transform="translate(223.17,110.47) rotate(79.6)" rx="1.48" ry="0.94"/>
<ellipse fill="#56bad0" cx="0.00" cy="0.00" transform="translate(283.33,110.54) rotate(101.3)" rx="1.48" ry="0.81"/>
<ellipse fill="#56bad0" cx="0.00" cy="0.00" transform="translate(263.30,110.64) rotate(92.1)" rx="1.47" ry="0.88"/>
<ellipse fill="#56bad0" cx="0.00" cy="0.00" transform="translate(143.85,111.80) rotate(59.2)" rx="1.56" ry="0.82"/>
<ellipse fill="#56bad0" cx="0.00" cy="0.00" transform="translate(362.72,111.70) rotate(118.4)" rx="1.51" ry="0.85"/>
<path fill="#56bad0" d="
  M 103.76 112.01
  A 0.49 0.49 0.0 0 1 104.52 111.47
  Q 105.36 112.08 105.87 112.84
  A 0.84 0.69 -87.0 0 1 104.83 113.97
  Q 104.07 113.03 103.76 112.01
  Z"
/>
<ellipse fill="#56bad0" cx="0.00" cy="0.00" transform="translate(342.28,112.79) rotate(111.9)" rx="1.44" ry="0.81"/>
<ellipse fill="#56bad0" cx="0.00" cy="0.00" transform="translate(401.88,112.49) rotate(117.8)" rx="1.35" ry="0.82"/>
<ellipse fill="#56bad0" cx="0.00" cy="0.00" transform="translate(164.28,112.82) rotate(63.1)" rx="1.49" ry="0.87"/>
<ellipse fill="#56bad0" cx="0.00" cy="0.00" transform="translate(184.63,114.10) rotate(80.5)" rx="1.61" ry="0.86"/>
<ellipse fill="#56bad0" cx="0.00" cy="0.00" transform="translate(322.06,114.12) rotate(105.2)" rx="1.52" ry="0.94"/>
<ellipse fill="#56bad0" cx="0.00" cy="0.00" transform="translate(126.17,114.73) rotate(60.5)" rx="1.58" ry="0.91"/>
<path fill="#56bad0" d="
  M 380.03 116.02
  Q 379.85 116.10 379.64 116.13
  Q 378.89 116.23 379.26 115.57
  L 380.35 113.67
  A 0.54 0.54 0.0 0 1 381.33 113.77
  Q 381.86 115.35 380.65 115.75
  Q 380.47 115.81 380.03 116.02
  Z"
/>
<path fill="#56bad0" d="
  M 302.66 114.01
  Q 302.97 114.97 302.93 115.99
  A 0.89 0.89 0.0 0 1 301.16 116.04
  Q 301.02 114.52 302.22 113.84
  Q 302.54 113.65 302.66 114.01
  Z"
/>
<ellipse fill="#56bad0" cx="0.00" cy="0.00" transform="translate(204.53,115.41) rotate(70.5)" rx="1.33" ry="0.84"/>
<ellipse fill="#56bad0" cx="0.00" cy="0.00" transform="translate(224.27,116.64) rotate(81.3)" rx="1.62" ry="0.88"/>
<ellipse fill="#56bad0" cx="0.00" cy="0.00" transform="translate(243.66,116.76) rotate(93.0)" rx="1.46" ry="0.83"/>
<ellipse fill="#56bad0" cx="0.00" cy="0.00" transform="translate(263.04,116.84) rotate(92.5)" rx="1.54" ry="0.92"/>
<ellipse fill="#56bad0" cx="0.00" cy="0.00" transform="translate(282.36,116.82) rotate(100.0)" rx="1.55" ry="0.91"/>
<path fill="#56bad0" d="
  M 147.76 118.57
  Q 146.68 118.16 146.04 117.28
  A 1.03 0.83 88.6 0 1 147.17 115.80
  Q 148.18 116.84 148.22 118.25
  A 0.34 0.34 0.0 0 1 147.76 118.57
  Z"
/>
<ellipse fill="#56bad0" cx="0.00" cy="0.00" transform="translate(359.47,117.07) rotate(119.1)" rx="1.52" ry="0.87"/>
<ellipse fill="#56bad0" cx="0.00" cy="0.00" transform="translate(108.70,117.45) rotate(50.8)" rx="1.42" ry="0.89"/>
<ellipse fill="#56bad0" cx="0.00" cy="0.00" transform="translate(397.75,117.49) rotate(130.1)" rx="1.46" ry="0.79"/>
<ellipse fill="#56bad0" cx="0.00" cy="0.00" transform="translate(167.12,118.48) rotate(59.8)" rx="1.36" ry="1.01"/>
<ellipse fill="#56bad0" cx="0.00" cy="0.00" transform="translate(339.53,118.48) rotate(120.3)" rx="1.40" ry="0.75"/>
<ellipse fill="#56bad0" cx="0.00" cy="0.00" transform="translate(129.70,119.91) rotate(51.9)" rx="1.50" ry="0.90"/>
<path fill="#56bad0" d="
  M 186.68 118.48
  Q 188.45 119.14 187.60 121.23
  Q 187.25 122.08 186.69 121.36
  L 185.60 119.93
  A 0.94 0.94 0.0 0 1 186.68 118.48
  Z"
/>
<ellipse fill="#56bad0" cx="0.00" cy="0.00" transform="translate(319.73,119.85) rotate(105.7)" rx="1.45" ry="0.84"/>
<ellipse fill="#56bad0" cx="0.00" cy="0.00" transform="translate(376.86,119.94) rotate(117.2)" rx="1.40" ry="0.88"/>
<ellipse fill="#56bad0" cx="0.00" cy="0.00" transform="translate(206.10,121.24) rotate(83.5)" rx="1.47" ry="0.86"/>
<ellipse fill="#56bad0" cx="0.00" cy="0.00" transform="translate(300.45,121.32) rotate(112.6)" rx="1.50" ry="0.87"/>
<ellipse fill="#56bad0" cx="0.00" cy="0.00" transform="translate(112.68,122.19) rotate(58.8)" rx="1.51" ry="0.95"/>
<ellipse fill="#56bad0" cx="0.00" cy="0.00" transform="translate(150.36,122.54) rotate(53.4)" rx="1.61" ry="0.94"/>
<ellipse fill="#56bad0" cx="0.00" cy="0.00" transform="translate(356.28,122.55) rotate(120.9)" rx="1.49" ry="0.81"/>
<ellipse fill="#56bad0" cx="0.00" cy="0.00" transform="translate(393.92,122.23) rotate(122.3)" rx="1.34" ry="0.93"/>
<ellipse fill="#56bad0" cx="0.00" cy="0.00" transform="translate(262.70,122.80) rotate(98.2)" rx="1.52" ry="0.88"/>
<ellipse fill="#56bad0" cx="0.00" cy="0.00" transform="translate(281.33,122.88) rotate(98.3)" rx="1.45" ry="0.82"/>
<ellipse fill="#56bad0" cx="0.00" cy="0.00" transform="translate(225.24,122.94) rotate(87.9)" rx="1.47" ry="0.90"/>
<ellipse fill="#56bad0" cx="0.00" cy="0.00" transform="translate(243.97,122.88) rotate(87.1)" rx="1.40" ry="0.88"/>
<path fill="#56bad0" d="
  M 169.97 125.48
  Q 168.98 124.77 168.46 123.78
  A 0.90 0.89 -79.2 0 1 169.93 122.78
  Q 170.84 123.85 170.85 125.02
  A 0.56 0.56 0.0 0 1 169.97 125.48
  Z"
/>
<ellipse fill="#56bad0" cx="0.00" cy="0.00" transform="translate(336.77,124.03) rotate(122.3)" rx="1.57" ry="0.77"/>
<ellipse fill="#56bad0" cx="0.00" cy="0.00" transform="translate(373.32,124.93) rotate(119.5)" rx="1.46" ry="0.91"/>
<ellipse fill="#56bad0" cx="0.00" cy="0.00" transform="translate(133.33,125.03) rotate(51.9)" rx="1.45" ry="0.90"/>
<path fill="#56bad0" d="
  M 188.05 124.63
  A 0.66 0.65 -80.3 0 1 188.80 124.09
  L 189.29 124.17
  Q 189.82 124.25 189.80 124.79
  L 189.74 126.68
  Q 189.72 127.39 189.08 127.06
  Q 187.76 126.36 188.05 124.63
  Z"
/>
<ellipse fill="#56bad0" cx="0.00" cy="0.00" transform="translate(317.73,125.59) rotate(105.3)" rx="1.51" ry="0.92"/>
<ellipse fill="#56bad0" cx="0.00" cy="0.00" transform="translate(116.57,126.95) rotate(55.7)" rx="1.48" ry="0.99"/>
<ellipse fill="#56bad0" cx="0.00" cy="0.00" transform="translate(207.82,127.36) rotate(81.4)" rx="1.45" ry="0.87"/>
<ellipse fill="#56bad0" cx="0.00" cy="0.00" transform="translate(298.85,127.37) rotate(89.7)" rx="1.46" ry="0.89"/>
<ellipse fill="#56bad0" cx="0.00" cy="0.00" transform="translate(390.03,127.06) rotate(113.1)" rx="1.32" ry="0.87"/>
<path fill="#56bad0" d="
  M 352.02 129.09
  Q 351.66 127.38 353.50 126.50
  Q 353.87 126.32 353.96 126.72
  Q 354.36 128.49 352.59 129.37
  A 0.40 0.40 0.0 0 1 352.02 129.09
  Z"
/>
<ellipse fill="#56bad0" cx="0.00" cy="0.00" transform="translate(153.60,128.05) rotate(69.1)" rx="1.37" ry="0.90"/>
<ellipse fill="#56bad0" cx="0.00" cy="0.00" transform="translate(226.20,129.17) rotate(85.9)" rx="1.67" ry="0.95"/>
<ellipse fill="#56bad0" cx="0.00" cy="0.00" transform="translate(244.32,129.21) rotate(89.5)" rx="1.65" ry="0.90"/>
<ellipse fill="#56bad0" cx="0.00" cy="0.00" transform="translate(262.26,129.24) rotate(92.8)" rx="1.59" ry="0.99"/>
<ellipse fill="#56bad0" cx="0.00" cy="0.00" transform="translate(172.47,129.51) rotate(72.0)" rx="1.58" ry="0.95"/>
<ellipse fill="#56bad0" cx="0.00" cy="0.00" transform="translate(280.23,129.25) rotate(94.6)" rx="1.60" ry="0.84"/>
<ellipse fill="#56bad0" cx="0.00" cy="0.00" transform="translate(334.07,129.59) rotate(111.3)" rx="1.38" ry="0.92"/>
<ellipse fill="#56bad0" cx="0.00" cy="0.00" transform="translate(136.90,129.90) rotate(62.4)" rx="1.47" ry="0.86"/>
<ellipse fill="#56bad0" cx="0.00" cy="0.00" transform="translate(369.78,129.90) rotate(121.5)" rx="1.43" ry="0.96"/>
<ellipse fill="#56bad0" cx="0.00" cy="0.00" transform="translate(191.11,131.41) rotate(76.9)" rx="1.52" ry="0.89"/>
<ellipse fill="#56bad0" cx="0.00" cy="0.00" transform="translate(315.45,131.45) rotate(107.0)" rx="1.28" ry="0.86"/>
<ellipse fill="#56bad0" cx="0.00" cy="0.00" transform="translate(386.23,131.74) rotate(127.6)" rx="1.34" ry="0.89"/>
<path fill="#56bad0" d="
  M 120.08 132.50
  Q 119.81 132.35 119.56 132.06
  A 0.86 0.86 0.0 0 1 120.63 130.75
  Q 121.90 131.46 121.33 132.84
  Q 121.06 133.49 120.58 132.98
  L 120.24 132.63
  A 0.63 0.57 81.4 0 0 120.08 132.50
  Z"
/>
<path fill="#56bad0" d="
  M 157.17 134.85
  L 155.86 133.64
  A 0.97 0.85 81.4 0 1 156.85 132.11
  Q 158.19 133.12 157.63 134.73
  A 0.28 0.28 0.0 0 1 157.17 134.85
  Z"
/>
<ellipse fill="#56bad0" cx="0.00" cy="0.00" transform="translate(209.52,133.48) rotate(70.5)" rx="1.47" ry="0.88"/>
<ellipse fill="#56bad0" cx="0.00" cy="0.00" transform="translate(297.18,133.41) rotate(103.8)" rx="1.37" ry="0.94"/>
<ellipse fill="#56bad0" cx="0.00" cy="0.00" transform="translate(349.78,133.42) rotate(112.5)" rx="1.39" ry="0.86"/>
<ellipse fill="#56bad0" cx="0.00" cy="0.00" transform="translate(140.52,135.05) rotate(58.7)" rx="1.32" ry="0.90"/>
<ellipse fill="#56bad0" cx="0.00" cy="0.00" transform="translate(227.23,135.47) rotate(86.2)" rx="1.68" ry="0.89"/>
<ellipse fill="#56bad0" cx="0.00" cy="0.00" transform="translate(244.59,135.46) rotate(92.0)" rx="1.55" ry="0.89"/>
<path fill="#56bad0" d="
  M 367.22 134.33
  Q 367.19 135.78 365.64 136.22
  Q 364.89 136.43 365.03 135.67
  Q 365.24 134.53 366.24 133.81
  A 0.62 0.62 0.0 0 1 367.22 134.33
  Z"
/>
<ellipse fill="#56bad0" cx="0.00" cy="0.00" transform="translate(175.30,135.32) rotate(59.3)" rx="1.40" ry="0.88"/>
<ellipse fill="#56bad0" cx="0.00" cy="0.00" transform="translate(262.04,135.45) rotate(93.5)" rx="1.48" ry="1.02"/>
<ellipse fill="#56bad0" cx="0.00" cy="0.00" transform="translate(279.18,135.48) rotate(91.9)" rx="1.48" ry="0.88"/>
<ellipse fill="#56bad0" cx="0.00" cy="0.00" transform="translate(331.28,135.30) rotate(116.7)" rx="1.41" ry="0.89"/>
<path fill="#56bad0" d="
  M 125.50 137.12
  A 0.64 0.63 20.5 0 1 124.40 137.62
  L 123.17 136.28
  A 0.55 0.55 0.0 0 1 123.56 135.36
  Q 125.29 135.30 125.50 137.12
  Z"
/>
<ellipse fill="#56bad0" cx="0.00" cy="0.00" transform="translate(382.32,136.49) rotate(132.1)" rx="1.28" ry="0.86"/>
<path fill="#56bad0" d="
  M 194.08 137.12
  Q 194.43 137.55 194.36 138.07
  A 0.59 0.58 27.0 0 1 193.36 138.39
  L 192.37 137.38
  A 0.96 0.92 -3.6 0 1 193.64 136.00
  Q 193.74 136.07 193.80 136.50
  Q 193.86 136.85 194.08 137.12
  Z"
/>
<ellipse fill="#56bad0" cx="0.00" cy="0.00" transform="translate(313.14,137.25) rotate(110.4)" rx="1.52" ry="0.79"/>
<ellipse fill="#56bad0" cx="0.00" cy="0.00" transform="translate(160.09,138.78) rotate(64.0)" rx="1.63" ry="0.86"/>
<ellipse fill="#56bad0" cx="0.00" cy="0.00" transform="translate(346.56,138.70) rotate(123.2)" rx="1.60" ry="0.92"/>
<ellipse fill="#56bad0" cx="0.00" cy="0.00" transform="translate(295.56,139.35) rotate(106.1)" rx="1.39" ry="0.81"/>
<ellipse fill="#56bad0" cx="0.00" cy="0.00" transform="translate(211.10,139.42) rotate(81.9)" rx="1.32" ry="0.95"/>
<path fill="#56bad0" d="
  M 143.08 139.06
  A 0.53 0.53 0.0 0 1 144.00 138.86
  L 145.17 140.24
  A 0.70 0.69 82.3 0 1 144.35 141.32
  Q 142.67 140.55 143.08 139.06
  Z"
/>
<ellipse fill="#56bad0" cx="0.00" cy="0.00" transform="translate(362.49,140.12) rotate(124.4)" rx="1.43" ry="1.01"/>
<ellipse fill="#56bad0" cx="0.00" cy="0.00" transform="translate(178.01,140.83) rotate(79.1)" rx="1.54" ry="0.85"/>
<ellipse fill="#56bad0" cx="0.00" cy="0.00" transform="translate(328.60,140.85) rotate(111.5)" rx="1.35" ry="0.84"/>
<ellipse fill="#56bad0" cx="0.00" cy="0.00" transform="translate(378.28,141.32) rotate(121.1)" rx="1.30" ry="0.83"/>
<ellipse fill="#56bad0" cx="0.00" cy="0.00" transform="translate(128.29,141.33) rotate(47.9)" rx="1.37" ry="0.79"/>
<ellipse fill="#56bad0" cx="0.00" cy="0.00" transform="translate(228.30,141.79) rotate(79.7)" rx="1.57" ry="0.91"/>
<path fill="#56bad0" d="
  M 245.41 143.18
  Q 244.64 144.20 244.41 142.94
  L 244.08 141.08
  A 0.76 0.76 0.0 0 1 245.31 140.36
  Q 246.68 141.48 245.41 143.18
  Z"
/>
<ellipse fill="#56bad0" cx="0.00" cy="0.00" transform="translate(261.68,141.80) rotate(97.3)" rx="1.53" ry="0.95"/>
<path fill="#56bad0" d="
  M 279.06 140.73
  L 279.13 142.06
  A 0.88 0.88 0.0 0 1 277.42 142.40
  Q 276.90 140.96 278.25 140.27
  A 0.55 0.55 0.0 0 1 279.06 140.73
  Z"
/>
<ellipse fill="#56bad0" cx="0.00" cy="0.00" transform="translate(195.61,143.05) rotate(73.1)" rx="1.61" ry="0.82"/>
<ellipse fill="#56bad0" cx="0.00" cy="0.00" transform="translate(310.99,143.04) rotate(102.5)" rx="1.47" ry="0.85"/>
<ellipse fill="#56bad0" cx="0.00" cy="0.00" transform="translate(163.27,144.24) rotate(60.6)" rx="1.55" ry="0.84"/>
<path fill="#56bad0" d="
  M 344.41 143.83
  L 343.33 145.46
  A 0.47 0.46 41.7 0 1 342.59 145.50
  Q 341.33 144.03 343.56 142.88
  A 0.66 0.66 0.0 0 1 344.41 143.83
  Z"
/>
<ellipse fill="#56bad0" cx="0.00" cy="0.00" transform="translate(147.74,145.31) rotate(59.9)" rx="1.43" ry="0.87"/>
<ellipse fill="#56bad0" cx="0.00" cy="0.00" transform="translate(212.69,145.40) rotate(78.5)" rx="1.55" ry="0.85"/>
<ellipse fill="#56bad0" cx="0.00" cy="0.00" transform="translate(293.79,145.38) rotate(100.7)" rx="1.43" ry="0.82"/>
<ellipse fill="#56bad0" cx="0.00" cy="0.00" transform="translate(358.92,145.27) rotate(122.4)" rx="1.46" ry="0.95"/>
<ellipse fill="#56bad0" cx="0.00" cy="0.00" transform="translate(132.16,146.09) rotate(59.5)" rx="1.36" ry="0.82"/>
<ellipse fill="#56bad0" cx="0.00" cy="0.00" transform="translate(374.42,146.04) rotate(135.4)" rx="1.35" ry="0.92"/>
<ellipse fill="#56bad0" cx="0.00" cy="0.00" transform="translate(325.90,146.34) rotate(114.5)" rx="1.31" ry="0.97"/>
<ellipse fill="#56bad0" cx="0.00" cy="0.00" transform="translate(180.79,146.50) rotate(66.7)" rx="1.37" ry="0.91"/>
<path fill="#56bad0" d="
  M 228.96 149.11
  L 228.68 147.46
  A 0.69 0.69 0.0 0 1 229.85 146.86
  Q 231.27 148.30 229.63 149.40
  A 0.44 0.43 -21.5 0 1 228.96 149.11
  Z"
/>
<ellipse fill="#56bad0" cx="0.00" cy="0.00" transform="translate(245.30,147.93) rotate(80.4)" rx="1.42" ry="0.94"/>
<ellipse fill="#56bad0" cx="0.00" cy="0.00" transform="translate(261.20,147.91) rotate(92.9)" rx="1.40" ry="0.89"/>
<path fill="#56bad0" d="
  M 276.62 148.95
  Q 275.92 147.55 277.23 146.76
  Q 277.86 146.38 277.85 147.12
  L 277.82 148.67
  A 0.64 0.63 -58.0 0 1 276.62 148.95
  Z"
/>
<ellipse fill="#56bad0" cx="0.00" cy="0.00" transform="translate(197.86,148.83) rotate(77.2)" rx="1.42" ry="0.87"/>
<ellipse fill="#56bad0" cx="0.00" cy="0.00" transform="translate(308.87,148.88) rotate(108.3)" rx="1.46" ry="0.83"/>
<ellipse fill="#56bad0" cx="0.00" cy="0.00" transform="translate(340.04,149.50) rotate(116.7)" rx="1.48" ry="0.85"/>
<path fill="#56bad0" d="
  M 165.40 149.47
  A 0.92 0.91 2.3 0 1 166.74 148.24
  Q 167.86 149.24 167.44 150.81
  Q 167.18 151.81 166.56 150.99
  L 165.40 149.47
  Z"
/>
<ellipse fill="#56bad0" cx="0.00" cy="0.00" transform="translate(151.35,150.27) rotate(53.3)" rx="1.51" ry="0.91"/>
<ellipse fill="#56bad0" cx="0.00" cy="0.00" transform="translate(355.31,150.32) rotate(121.8)" rx="1.46" ry="0.97"/>
<ellipse fill="#56bad0" cx="0.00" cy="0.00" transform="translate(136.11,150.95) rotate(61.9)" rx="1.49" ry="0.78"/>
<path fill="#56bad0" d="
  M 371.08 149.73
  A 0.43 0.43 0.0 0 1 371.57 150.08
  Q 371.77 151.26 370.79 151.93
  A 1.06 0.94 5.5 0 1 369.42 150.47
  Q 370.20 149.87 371.08 149.73
  Z"
/>
<ellipse fill="#56bad0" cx="0.00" cy="0.00" transform="translate(214.35,151.37) rotate(72.1)" rx="1.42" ry="0.90"/>
<ellipse fill="#56bad0" cx="0.00" cy="0.00" transform="translate(292.29,151.42) rotate(103.6)" rx="1.38" ry="0.85"/>
<ellipse fill="#56bad0" cx="0.00" cy="0.00" transform="translate(183.55,152.08) rotate(69.5)" rx="1.58" ry="0.79"/>
<ellipse fill="#56bad0" cx="0.00" cy="0.00" transform="translate(322.98,151.94) rotate(104.3)" rx="1.47" ry="0.90"/>
<ellipse fill="#56bad0" cx="0.00" cy="0.00" transform="translate(230.37,154.10) rotate(89.7)" rx="1.57" ry="1.01"/>
<ellipse fill="#56bad0" cx="0.00" cy="0.00" transform="translate(245.78,154.09) rotate(87.4)" rx="1.52" ry="0.86"/>
<ellipse fill="#56bad0" cx="0.00" cy="0.00" transform="translate(276.28,154.11) rotate(99.8)" rx="1.53" ry="0.85"/>
<ellipse fill="#56bad0" cx="0.00" cy="0.00" transform="translate(260.85,154.19) rotate(93.2)" rx="1.45" ry="0.88"/>
<path fill="#56bad0" d="
  M 200.70 155.72
  Q 200.51 156.24 200.02 155.99
  Q 198.80 155.37 198.97 153.89
  A 0.86 0.86 0.0 0 1 200.60 153.60
  Q 201.11 154.61 200.70 155.72
  Z"
/>
<ellipse fill="#56bad0" cx="0.00" cy="0.00" transform="translate(306.52,154.62) rotate(104.7)" rx="1.32" ry="0.80"/>
<path fill="#56bad0" d="
  M 335.65 155.97
  L 336.42 153.77
  A 0.71 0.71 0.0 0 1 337.79 153.94
  Q 337.94 155.73 336.34 156.56
  A 0.49 0.49 0.0 0 1 335.65 155.97
  Z"
/>
<ellipse fill="#56bad0" cx="0.00" cy="0.00" transform="translate(169.75,155.06) rotate(62.0)" rx="1.74" ry="0.85"/>
<ellipse fill="#56bad0" cx="0.00" cy="0.00" transform="translate(154.79,155.38) rotate(61.6)" rx="1.61" ry="0.91"/>
<ellipse fill="#56bad0" cx="0.00" cy="0.00" transform="translate(351.79,155.33) rotate(122.4)" rx="1.47" ry="1.00"/>
<path fill="#56bad0" d="
  M 140.93 155.64
  Q 141.06 155.91 141.12 156.18
  Q 141.23 156.67 140.73 156.77
  Q 139.52 157.00 139.00 156.04
  A 1.03 0.92 -89.3 0 1 140.29 154.63
  Q 140.52 154.80 140.93 155.64
  Z"
/>
<ellipse fill="#56bad0" cx="0.00" cy="0.00" transform="translate(366.66,155.66) rotate(116.0)" rx="1.52" ry="0.88"/>
<ellipse fill="#56bad0" cx="0.00" cy="0.00" transform="translate(216.01,157.35) rotate(77.9)" rx="1.51" ry="0.95"/>
<ellipse fill="#56bad0" cx="0.00" cy="0.00" transform="translate(290.68,157.41) rotate(100.3)" rx="1.42" ry="0.87"/>
<path fill="#56bad0" d="
  M 319.28 157.50
  L 320.45 156.42
  A 0.56 0.56 0.0 0 1 321.38 156.72
  Q 321.65 158.10 320.43 158.82
  Q 319.83 159.18 319.45 158.59
  L 319.19 158.19
  A 0.55 0.54 -37.8 0 1 319.28 157.50
  Z"
/>
<ellipse fill="#56bad0" cx="0.00" cy="0.00" transform="translate(186.22,157.71) rotate(65.5)" rx="1.53" ry="0.91"/>
<path fill="#56bad0" d="
  M 173.58 159.09
  L 174.07 160.61
  A 0.93 0.92 20.9 0 1 172.39 161.36
  Q 171.38 159.63 173.10 158.88
  A 0.35 0.35 0.0 0 1 173.58 159.09
  Z"
/>
<path fill="#56bad0" d="
  M 203.40 161.18
  A 0.29 0.29 0.0 0 1 203.22 161.55
  L 203.02 161.62
  A 1.46 1.35 -19.6 0 1 201.19 160.84
  L 201.08 160.52
  A 1.46 1.35 -19.6 0 1 202.00 158.76
  L 202.20 158.69
  A 0.29 0.29 0.0 0 1 202.57 158.86
  L 203.40 161.18
  Z"
/>
<path fill="#56bad0" d="
  M 231.78 159.00
  L 232.22 160.96
  A 0.71 0.71 0.0 0 1 230.94 161.52
  Q 229.87 159.98 231.21 158.81
  Q 231.66 158.42 231.78 159.00
  Z"
/>
<ellipse fill="#56bad0" cx="0.00" cy="0.00" transform="translate(245.97,160.30) rotate(88.7)" rx="1.47" ry="0.96"/>
<ellipse fill="#56bad0" cx="0.00" cy="0.00" transform="translate(260.65,160.36) rotate(92.3)" rx="1.44" ry="0.82"/>
<path fill="#56bad0" d="
  M 332.39 160.84
  L 333.24 159.51
  A 0.85 0.85 0.0 0 1 334.77 160.18
  Q 334.38 161.73 332.81 161.66
  A 0.53 0.53 0.0 0 1 332.39 160.84
  Z"
/>
<ellipse fill="#56bad0" cx="0.00" cy="0.00" transform="translate(143.90,160.47) rotate(46.6)" rx="1.57" ry="0.84"/>
<ellipse fill="#56bad0" cx="0.00" cy="0.00" transform="translate(158.43,160.44) rotate(58.3)" rx="1.47" ry="0.97"/>
<ellipse fill="#56bad0" cx="0.00" cy="0.00" transform="translate(275.23,160.39) rotate(91.9)" rx="1.34" ry="0.75"/>
<ellipse fill="#56bad0" cx="0.00" cy="0.00" transform="translate(348.18,160.45) rotate(119.2)" rx="1.41" ry="0.99"/>
<ellipse fill="#56bad0" cx="0.00" cy="0.00" transform="translate(362.72,160.44) rotate(118.6)" rx="1.43" ry="0.90"/>
<ellipse fill="#56bad0" cx="0.00" cy="0.00" transform="translate(304.44,160.42) rotate(117.0)" rx="1.31" ry="0.97"/>
<ellipse fill="#56bad0" cx="0.00" cy="0.00" transform="translate(188.88,163.29) rotate(69.4)" rx="1.49" ry="0.87"/>
<ellipse fill="#56bad0" cx="0.00" cy="0.00" transform="translate(289.01,163.39) rotate(96.2)" rx="1.60" ry="0.87"/>
<ellipse fill="#56bad0" cx="0.00" cy="0.00" transform="translate(317.67,163.19) rotate(116.7)" rx="1.53" ry="0.85"/>
<ellipse fill="#56bad0" cx="0.00" cy="0.00" transform="translate(217.61,163.49) rotate(74.5)" rx="1.54" ry="0.86"/>
<ellipse fill="#56bad0" cx="0.00" cy="0.00" transform="translate(358.76,165.26) rotate(130.2)" rx="1.51" ry="0.92"/>
<ellipse fill="#56bad0" cx="0.00" cy="0.00" transform="translate(147.79,165.30) rotate(50.9)" rx="1.45" ry="0.90"/>
<ellipse fill="#56bad0" cx="0.00" cy="0.00" transform="translate(162.04,165.54) rotate(46.4)" rx="1.58" ry="0.95"/>
<ellipse fill="#56bad0" cx="0.00" cy="0.00" transform="translate(344.59,165.60) rotate(123.8)" rx="1.45" ry="0.86"/>
<ellipse fill="#56bad0" cx="0.00" cy="0.00" transform="translate(176.27,165.96) rotate(56.3)" rx="1.69" ry="1.05"/>
<path fill="#56bad0" d="
  M 331.44 165.34
  L 330.76 167.08
  A 0.61 0.61 0.0 0 1 329.76 167.28
  Q 328.82 166.32 329.53 165.29
  Q 330.29 164.18 331.16 164.60
  Q 331.64 164.84 331.44 165.34
  Z"
/>
<ellipse fill="#56bad0" cx="0.00" cy="0.00" transform="translate(204.45,166.29) rotate(71.8)" rx="1.55" ry="0.96"/>
<ellipse fill="#56bad0" cx="0.00" cy="0.00" transform="translate(302.17,166.22) rotate(96.4)" rx="1.49" ry="0.94"/>
<ellipse fill="#56bad0" cx="0.00" cy="0.00" transform="translate(232.34,166.71) rotate(81.5)" rx="1.51" ry="0.84"/>
<ellipse fill="#56bad0" cx="0.00" cy="0.00" transform="translate(246.42,166.67) rotate(87.6)" rx="1.59" ry="0.95"/>
<ellipse fill="#56bad0" cx="0.00" cy="0.00" transform="translate(260.31,166.68) rotate(85.7)" rx="1.46" ry="0.89"/>
<path fill="#56bad0" d="
  M 274.46 165.52
  Q 275.34 166.49 274.41 167.31
  Q 274.04 167.64 273.95 167.16
  L 273.69 165.90
  A 0.45 0.44 18.5 0 1 274.46 165.52
  Z"
/>
<ellipse fill="#56bad0" cx="0.00" cy="0.00" transform="translate(191.74,168.80) rotate(66.0)" rx="1.40" ry="0.95"/>
<ellipse fill="#56bad0" cx="0.00" cy="0.00" transform="translate(314.88,168.82) rotate(108.8)" rx="1.37" ry="0.87"/>
<path fill="#56bad0" d="
  M 220.13 170.51
  A 0.59 0.58 -62.8 0 1 219.05 170.86
  L 218.07 169.31
  A 1.02 0.87 14.8 0 1 219.77 168.49
  Q 220.05 168.87 220.13 170.51
  Z"
/>
<ellipse fill="#56bad0" cx="0.00" cy="0.00" transform="translate(287.25,169.48) rotate(101.3)" rx="1.53" ry="0.92"/>
<ellipse fill="#56bad0" cx="0.00" cy="0.00" transform="translate(151.65,170.02) rotate(44.9)" rx="1.60" ry="0.89"/>
<path fill="#56bad0" d="
  M 353.82 170.87
  Q 353.89 169.40 355.44 168.76
  A 0.55 0.55 0.0 0 1 356.13 169.55
  L 355.13 171.26
  A 0.70 0.70 0.0 0 1 353.82 170.87
  Z"
/>
<ellipse fill="#56bad0" cx="0.00" cy="0.00" transform="translate(165.59,170.60) rotate(43.6)" rx="1.52" ry="0.94"/>
<path fill="#56bad0" d="
  M 340.25 171.59
  Q 339.49 169.91 341.36 169.35
  Q 341.97 169.17 341.98 169.80
  Q 341.99 170.94 341.16 171.75
  Q 340.59 172.31 340.25 171.59
  Z"
/>
<ellipse fill="#56bad0" cx="0.00" cy="0.00" transform="translate(179.48,171.28) rotate(56.3)" rx="1.51" ry="0.94"/>
<ellipse fill="#56bad0" cx="0.00" cy="0.00" transform="translate(327.12,171.33) rotate(116.9)" rx="1.53" ry="0.93"/>
<ellipse fill="#56bad0" cx="0.00" cy="0.00" transform="translate(299.93,172.08) rotate(104.7)" rx="1.47" ry="0.89"/>
<ellipse fill="#56bad0" cx="0.00" cy="0.00" transform="translate(206.69,172.12) rotate(76.1)" rx="1.53" ry="0.86"/>
<ellipse fill="#56bad0" cx="0.00" cy="0.00" transform="translate(233.48,173.05) rotate(88.5)" rx="1.59" ry="0.78"/>
<ellipse fill="#56bad0" cx="0.00" cy="0.00" transform="translate(246.69,173.04) rotate(86.8)" rx="1.68" ry="0.92"/>
<ellipse fill="#56bad0" cx="0.00" cy="0.00" transform="translate(259.86,173.01) rotate(91.4)" rx="1.62" ry="0.92"/>
<ellipse fill="#56bad0" cx="0.00" cy="0.00" transform="translate(273.05,173.04) rotate(90.8)" rx="1.58" ry="0.80"/>
<ellipse fill="#56bad0" cx="0.00" cy="0.00" transform="translate(194.45,174.38) rotate(67.3)" rx="1.54" ry="0.98"/>
<ellipse fill="#56bad0" cx="0.00" cy="0.00" transform="translate(155.49,174.68) rotate(52.3)" rx="1.57" ry="0.89"/>
<ellipse fill="#56bad0" cx="0.00" cy="0.00" transform="translate(312.08,174.51) rotate(107.8)" rx="1.43" ry="0.93"/>
<ellipse fill="#56bad0" cx="0.00" cy="0.00" transform="translate(351.00,174.73) rotate(126.4)" rx="1.51" ry="0.97"/>
<ellipse fill="#56bad0" cx="0.00" cy="0.00" transform="translate(220.96,175.54) rotate(80.1)" rx="1.54" ry="0.89"/>
<ellipse fill="#56bad0" cx="0.00" cy="0.00" transform="translate(285.72,175.42) rotate(97.7)" rx="1.39" ry="0.92"/>
<ellipse fill="#56bad0" cx="0.00" cy="0.00" transform="translate(169.08,175.64) rotate(66.2)" rx="1.41" ry="0.99"/>
<ellipse fill="#56bad0" cx="0.00" cy="0.00" transform="translate(337.36,175.66) rotate(125.5)" rx="1.43" ry="0.85"/>
<ellipse fill="#56bad0" cx="0.00" cy="0.00" transform="translate(182.74,176.83) rotate(62.3)" rx="1.69" ry="0.87"/>
<ellipse fill="#56bad0" cx="0.00" cy="0.00" transform="translate(323.83,176.65) rotate(118.1)" rx="1.57" ry="0.91"/>
<ellipse fill="#56bad0" cx="0.00" cy="0.00" transform="translate(208.86,177.86) rotate(72.6)" rx="1.53" ry="0.90"/>
<ellipse fill="#56bad0" cx="0.00" cy="0.00" transform="translate(297.77,177.87) rotate(105.9)" rx="1.54" ry="0.98"/>
<ellipse fill="#56bad0" cx="0.00" cy="0.00" transform="translate(234.46,179.20) rotate(87.4)" rx="1.50" ry="0.93"/>
<ellipse fill="#56bad0" cx="0.00" cy="0.00" transform="translate(246.93,179.23) rotate(88.0)" rx="1.54" ry="1.01"/>
<ellipse fill="#56bad0" cx="0.00" cy="0.00" transform="translate(259.64,179.29) rotate(89.5)" rx="1.56" ry="0.85"/>
<ellipse fill="#56bad0" cx="0.00" cy="0.00" transform="translate(272.11,179.28) rotate(90.4)" rx="1.48" ry="0.93"/>
<ellipse fill="#56bad0" cx="0.00" cy="0.00" transform="translate(159.44,179.60) rotate(50.2)" rx="1.46" ry="0.94"/>
<ellipse fill="#56bad0" cx="0.00" cy="0.00" transform="translate(347.17,179.55) rotate(116.3)" rx="1.38" ry="0.95"/>
<path fill="#56bad0" d="
  M 197.60 179.00
  L 198.28 180.81
  A 0.45 0.45 0.0 0 1 197.82 181.41
  Q 195.85 181.24 196.10 179.18
  A 0.78 0.78 0.0 0 1 197.60 179.00
  Z"
/>
<ellipse fill="#56bad0" cx="0.00" cy="0.00" transform="translate(309.41,180.06) rotate(107.2)" rx="1.39" ry="0.92"/>
<ellipse fill="#56bad0" cx="0.00" cy="0.00" transform="translate(172.72,180.64) rotate(50.1)" rx="1.51" ry="0.94"/>
<path fill="#56bad0" d="
  M 332.98 180.59
  L 333.33 179.78
  A 0.75 0.74 26.9 0 1 334.39 179.44
  Q 335.17 179.90 334.89 180.72
  Q 334.31 182.37 333.23 181.56
  Q 332.72 181.18 332.98 180.59
  Z"
/>
<ellipse fill="#56bad0" cx="0.00" cy="0.00" transform="translate(222.62,181.51) rotate(77.5)" rx="1.61" ry="0.96"/>
<path fill="#56bad0" d="
  M 284.65 180.31
  Q 285.00 181.25 284.96 182.27
  A 0.89 0.89 0.0 0 1 283.18 182.29
  Q 283.10 180.97 283.84 180.15
  A 0.48 0.48 0.0 0 1 284.65 180.31
  Z"
/>
<path fill="#56bad0" d="
  M 319.48 182.70
  Q 319.71 181.64 320.43 180.58
  A 1.25 0.80 89.0 0 1 321.59 182.32
  Q 321.09 183.22 319.95 183.26
  Q 319.35 183.29 319.48 182.70
  Z"
/>
<ellipse fill="#56bad0" cx="0.00" cy="0.00" transform="translate(185.99,182.10) rotate(61.3)" rx="1.54" ry="1.03"/>
<path fill="#56bad0" d="
  M 295.46 185.16
  L 294.62 184.54
  Q 294.13 184.17 294.49 183.67
  L 295.56 182.19
  A 0.54 0.54 0.0 0 1 296.53 182.59
  L 296.16 184.88
  A 0.44 0.44 0.0 0 1 295.46 185.16
  Z"
/>
<path fill="#56bad0" d="
  M 211.28 185.24
  A 0.38 0.38 0.0 0 1 210.66 185.10
  L 209.99 183.26
  A 0.89 0.89 0.0 0 1 211.55 182.44
  Q 212.63 183.94 211.28 185.24
  Z"
/>
<ellipse fill="#56bad0" cx="0.00" cy="0.00" transform="translate(163.31,184.31) rotate(52.0)" rx="1.58" ry="0.87"/>
<ellipse fill="#56bad0" cx="0.00" cy="0.00" transform="translate(343.29,184.29) rotate(124.3)" rx="1.53" ry="0.80"/>
<path fill="#56bad0" d="
  M 234.93 186.77
  L 234.46 184.38
  A 0.90 0.90 0.0 0 1 236.12 183.76
  Q 237.33 185.85 235.74 187.08
  A 0.51 0.51 0.0 0 1 234.93 186.77
  Z"
/>
<ellipse fill="#56bad0" cx="0.00" cy="0.00" transform="translate(247.36,185.51) rotate(86.8)" rx="1.49" ry="0.99"/>
<ellipse fill="#56bad0" cx="0.00" cy="0.00" transform="translate(271.11,185.54) rotate(92.1)" rx="1.48" ry="0.93"/>
<ellipse fill="#56bad0" cx="0.00" cy="0.00" transform="translate(176.36,185.84) rotate(55.4)" rx="1.64" ry="1.03"/>
<ellipse fill="#56bad0" cx="0.00" cy="0.00" transform="translate(199.96,185.60) rotate(53.8)" rx="1.53" ry="0.99"/>
<path fill="#56bad0" d="
  M 260.21 184.78
  Q 260.25 186.10 259.36 186.98
  Q 258.59 187.74 258.43 186.67
  L 258.18 184.96
  A 0.60 0.60 0.0 0 1 258.81 184.27
  L 259.76 184.31
  A 0.48 0.47 -89.4 0 1 260.21 184.78
  Z"
/>
<ellipse fill="#56bad0" cx="0.00" cy="0.00" transform="translate(306.54,185.65) rotate(105.1)" rx="1.45" ry="0.94"/>
<ellipse fill="#56bad0" cx="0.00" cy="0.00" transform="translate(330.17,185.84) rotate(113.7)" rx="1.55" ry="0.91"/>
<ellipse fill="#56bad0" cx="0.00" cy="0.00" transform="translate(224.18,187.50) rotate(77.1)" rx="1.61" ry="0.93"/>
<ellipse fill="#56bad0" cx="0.00" cy="0.00" transform="translate(282.47,187.47) rotate(100.5)" rx="1.54" ry="0.96"/>
<ellipse fill="#56bad0" cx="0.00" cy="0.00" transform="translate(317.37,187.47) rotate(123.7)" rx="1.54" ry="0.85"/>
<path fill="#56bad0" d="
  M 189.24 188.54
  Q 188.49 188.35 188.05 187.72
  A 0.94 0.94 0.0 0 1 189.28 186.37
  Q 190.33 186.96 190.41 188.39
  A 0.48 0.48 0.0 0 1 190.11 188.86
  Q 189.65 189.03 189.49 188.73
  Q 189.41 188.59 189.24 188.54
  Z"
/>
<path fill="#56bad0" d="
  M 168.52 189.83
  A 0.50 0.50 0.0 0 1 167.88 190.47
  Q 166.98 190.14 166.30 189.53
  A 1.14 0.79 75.7 0 1 166.98 187.69
  Q 168.10 188.63 168.52 189.83
  Z"
/>
<ellipse fill="#56bad0" cx="0.00" cy="0.00" transform="translate(213.22,189.41) rotate(67.3)" rx="1.64" ry="0.88"/>
<ellipse fill="#56bad0" cx="0.00" cy="0.00" transform="translate(339.31,189.12) rotate(123.9)" rx="1.42" ry="0.89"/>
<ellipse fill="#56bad0" cx="0.00" cy="0.00" transform="translate(293.25,189.54) rotate(108.7)" rx="1.60" ry="0.83"/>
<ellipse fill="#56bad0" cx="0.00" cy="0.00" transform="translate(180.00,190.92) rotate(68.4)" rx="1.43" ry="1.01"/>
<ellipse fill="#56bad0" cx="0.00" cy="0.00" transform="translate(326.68,190.93) rotate(115.9)" rx="1.61" ry="0.90"/>
<ellipse fill="#56bad0" cx="0.00" cy="0.00" transform="translate(202.74,191.30) rotate(65.2)" rx="1.52" ry="0.97"/>
<ellipse fill="#56bad0" cx="0.00" cy="0.00" transform="translate(303.93,191.23) rotate(105.0)" rx="1.58" ry="0.99"/>
<ellipse fill="#56bad0" cx="0.00" cy="0.00" transform="translate(258.93,191.74) rotate(91.2)" rx="1.64" ry="0.91"/>
<ellipse fill="#56bad0" cx="0.00" cy="0.00" transform="translate(236.55,191.74) rotate(81.8)" rx="1.52" ry="0.96"/>
<ellipse fill="#56bad0" cx="0.00" cy="0.00" transform="translate(247.61,191.79) rotate(86.5)" rx="1.54" ry="1.01"/>
<ellipse fill="#56bad0" cx="0.00" cy="0.00" transform="translate(270.12,191.67) rotate(100.2)" rx="1.46" ry="1.04"/>
<ellipse fill="#56bad0" cx="0.00" cy="0.00" transform="translate(192.43,192.93) rotate(61.6)" rx="1.59" ry="1.01"/>
<ellipse fill="#56bad0" cx="0.00" cy="0.00" transform="translate(314.16,192.94) rotate(112.4)" rx="1.56" ry="1.00"/>
<ellipse fill="#56bad0" cx="0.00" cy="0.00" transform="translate(280.71,193.47) rotate(107.4)" rx="1.62" ry="0.87"/>
<ellipse fill="#56bad0" cx="0.00" cy="0.00" transform="translate(225.77,193.60) rotate(75.3)" rx="1.59" ry="0.97"/>
<path fill="#56bad0" d="
  M 171.74 194.95
  Q 169.64 194.91 170.07 192.84
  A 0.57 0.57 0.0 0 1 171.03 192.55
  L 172.25 193.73
  A 0.71 0.71 0.0 0 1 171.74 194.95
  Z"
/>
<ellipse fill="#56bad0" cx="0.00" cy="0.00" transform="translate(335.49,193.78) rotate(128.7)" rx="1.49" ry="0.90"/>
<ellipse fill="#56bad0" cx="0.00" cy="0.00" transform="translate(291.15,195.27) rotate(108.1)" rx="1.63" ry="0.91"/>
<ellipse fill="#56bad0" cx="0.00" cy="0.00" transform="translate(215.52,195.20) rotate(67.1)" rx="1.55" ry="0.93"/>
<path fill="#56bad0" d="
  M 184.75 196.48
  A 0.12 0.11 41.4 0 1 184.76 196.56
  Q 184.45 197.59 183.75 197.41
  Q 183.37 197.31 183.07 196.82
  Q 182.56 195.96 182.39 195.44
  A 0.86 0.86 0.0 0 1 183.99 194.81
  L 184.75 196.48
  Z"
/>
<path fill="#56bad0" d="
  M 322.74 194.74
  A 0.48 0.47 23.8 0 1 323.29 194.53
  Q 324.01 194.76 324.13 195.07
  A 1.73 1.20 89.1 0 1 322.55 197.43
  L 322.12 197.12
  Q 321.60 196.74 321.92 196.18
  L 322.74 194.74
  Z"
/>
<ellipse fill="#56bad0" cx="0.00" cy="0.00" transform="translate(205.45,196.88) rotate(62.3)" rx="1.62" ry="0.87"/>
<ellipse fill="#56bad0" cx="0.00" cy="0.00" transform="translate(301.18,196.93) rotate(107.8)" rx="1.49" ry="0.92"/>
<ellipse fill="#56bad0" cx="0.00" cy="0.00" transform="translate(237.58,197.91) rotate(84.1)" rx="1.70" ry="1.00"/>
<ellipse fill="#56bad0" cx="0.00" cy="0.00" transform="translate(248.01,197.93) rotate(95.7)" rx="1.67" ry="1.09"/>
<ellipse fill="#56bad0" cx="0.00" cy="0.00" transform="translate(258.51,197.92) rotate(98.2)" rx="1.60" ry="0.97"/>
<ellipse fill="#56bad0" cx="0.00" cy="0.00" transform="translate(269.04,197.96) rotate(95.9)" rx="1.55" ry="1.11"/>
<ellipse fill="#56bad0" cx="0.00" cy="0.00" transform="translate(310.85,198.34) rotate(122.8)" rx="1.55" ry="0.99"/>
<path fill="#56bad0" d="
  M 196.16 197.46
  L 196.62 199.33
  Q 196.80 200.07 196.10 199.78
  Q 194.76 199.24 194.57 198.44
  Q 194.25 197.07 195.54 197.00
  A 0.60 0.60 0.0 0 1 196.16 197.46
  Z"
/>
<ellipse fill="#56bad0" cx="0.00" cy="0.00" transform="translate(175.07,198.56) rotate(43.4)" rx="1.49" ry="1.00"/>
<ellipse fill="#56bad0" cx="0.00" cy="0.00" transform="translate(331.51,198.67) rotate(127.5)" rx="1.49" ry="0.87"/>
<ellipse fill="#56bad0" cx="0.00" cy="0.00" transform="translate(227.40,199.54) rotate(80.5)" rx="1.80" ry="0.93"/>
<ellipse fill="#56bad0" cx="0.00" cy="0.00" transform="translate(279.11,199.49) rotate(94.4)" rx="1.64" ry="0.91"/>
<ellipse fill="#56bad0" cx="0.00" cy="0.00" transform="translate(187.17,201.04) rotate(65.3)" rx="1.62" ry="0.86"/>
<ellipse fill="#56bad0" cx="0.00" cy="0.00" transform="translate(217.72,201.10) rotate(72.1)" rx="1.56" ry="0.99"/>
<ellipse fill="#56bad0" cx="0.00" cy="0.00" transform="translate(288.89,201.13) rotate(102.8)" rx="1.56" ry="0.94"/>
<ellipse fill="#56bad0" cx="0.00" cy="0.00" transform="translate(319.39,201.08) rotate(114.3)" rx="1.50" ry="0.99"/>
<path fill="#56bad0" d="
  M 298.49 204.08
  A 0.28 0.28 0.0 0 1 298.11 204.18
  L 297.61 203.90
  A 1.27 1.03 -59.8 0 1 297.36 202.28
  L 297.69 201.71
  A 1.27 1.03 -59.8 0 1 299.22 201.13
  L 299.72 201.42
  A 0.28 0.28 0.0 0 1 299.82 201.80
  L 298.49 204.08
  Z"
/>
<ellipse fill="#56bad0" cx="0.00" cy="0.00" transform="translate(208.11,202.46) rotate(61.5)" rx="1.59" ry="0.93"/>
<ellipse fill="#56bad0" cx="0.00" cy="0.00" transform="translate(327.72,203.41) rotate(125.5)" rx="1.55" ry="0.96"/>
<ellipse fill="#56bad0" cx="0.00" cy="0.00" transform="translate(178.98,203.48) rotate(41.4)" rx="1.43" ry="0.97"/>
<ellipse fill="#56bad0" cx="0.00" cy="0.00" transform="translate(307.61,203.88) rotate(119.3)" rx="1.63" ry="0.96"/>
<path fill="#56bad0" d="
  M 199.60 205.18
  Q 198.25 204.70 197.73 203.40
  A 0.80 0.80 0.0 0 1 198.97 202.48
  Q 200.04 203.33 200.18 204.71
  A 0.44 0.44 0.0 0 1 199.60 205.18
  Z"
/>
<ellipse fill="#56bad0" cx="0.00" cy="0.00" transform="translate(238.57,204.17) rotate(90.6)" rx="1.60" ry="0.93"/>
<ellipse fill="#56bad0" cx="0.00" cy="0.00" transform="translate(248.39,204.16) rotate(86.6)" rx="1.64" ry="0.98"/>
<ellipse fill="#56bad0" cx="0.00" cy="0.00" transform="translate(258.15,204.15) rotate(90.9)" rx="1.64" ry="0.95"/>
<ellipse fill="#56bad0" cx="0.00" cy="0.00" transform="translate(268.11,204.15) rotate(96.7)" rx="1.70" ry="0.94"/>
<ellipse fill="#56bad0" cx="0.00" cy="0.00" transform="translate(229.14,205.69) rotate(84.5)" rx="1.57" ry="0.89"/>
<ellipse fill="#56bad0" cx="0.00" cy="0.00" transform="translate(277.63,205.64) rotate(97.9)" rx="1.56" ry="0.85"/>
<ellipse fill="#56bad0" cx="0.00" cy="0.00" transform="translate(190.66,206.07) rotate(61.2)" rx="1.51" ry="1.04"/>
<ellipse fill="#56bad0" cx="0.00" cy="0.00" transform="translate(315.92,206.07) rotate(114.5)" rx="1.54" ry="1.11"/>
<ellipse fill="#56bad0" cx="0.00" cy="0.00" transform="translate(286.72,206.83) rotate(106.1)" rx="1.51" ry="1.02"/>
<path fill="#56bad0" d="
  M 218.68 206.14
  A 0.50 0.50 0.0 0 1 219.17 205.46
  L 220.13 205.51
  A 0.67 0.66 2.3 0 1 220.76 206.18
  L 220.73 208.15
  A 0.59 0.59 0.0 0 1 219.59 208.36
  L 218.68 206.14
  Z"
/>
<path fill="#56bad0" d="
  M 211.18 206.61
  L 211.95 207.99
  A 0.98 0.98 0.0 0 1 210.24 208.95
  Q 209.52 207.65 210.57 206.53
  A 0.38 0.38 0.0 0 1 211.18 206.61
  Z"
/>
<ellipse fill="#56bad0" cx="0.00" cy="0.00" transform="translate(295.74,207.99) rotate(109.0)" rx="1.47" ry="0.92"/>
<path fill="#56bad0" d="
  M 183.32 209.34
  Q 182.44 209.02 181.80 208.41
  A 0.89 0.88 -6.1 0 1 182.91 207.04
  Q 183.90 207.71 183.95 208.88
  Q 183.97 209.58 183.32 209.34
  Z"
/>
<ellipse fill="#56bad0" cx="0.00" cy="0.00" transform="translate(323.78,208.17) rotate(-41.0)" rx="1.50" ry="1.01"/>
<ellipse fill="#56bad0" cx="0.00" cy="0.00" transform="translate(202.26,209.21) rotate(58.3)" rx="1.59" ry="0.92"/>
<path fill="#56bad0" d="
  M 303.17 209.78
  Q 303.23 208.07 305.13 207.68
  A 1.60 1.12 -50.2 0 1 304.90 210.43
  Q 304.21 210.66 303.55 210.38
  Q 303.15 210.22 303.17 209.78
  Z"
/>
<ellipse fill="#56bad0" cx="0.00" cy="0.00" transform="translate(239.54,210.43) rotate(80.8)" rx="1.51" ry="0.98"/>
<ellipse fill="#56bad0" cx="0.00" cy="0.00" transform="translate(248.77,210.44) rotate(79.0)" rx="1.53" ry="0.94"/>
<ellipse fill="#56bad0" cx="0.00" cy="0.00" transform="translate(257.97,210.41) rotate(89.5)" rx="1.49" ry="0.96"/>
<ellipse fill="#56bad0" cx="0.00" cy="0.00" transform="translate(267.13,210.42) rotate(97.4)" rx="1.43" ry="0.92"/>
<ellipse fill="#56bad0" cx="0.00" cy="0.00" transform="translate(194.39,211.24) rotate(58.5)" rx="1.48" ry="0.99"/>
<ellipse fill="#56bad0" cx="0.00" cy="0.00" transform="translate(312.26,211.25) rotate(123.2)" rx="1.52" ry="1.01"/>
<ellipse fill="#56bad0" cx="0.00" cy="0.00" transform="translate(230.72,211.67) rotate(79.9)" rx="1.52" ry="0.99"/>
<ellipse fill="#56bad0" cx="0.00" cy="0.00" transform="translate(275.95,211.64) rotate(103.8)" rx="1.48" ry="0.99"/>
<ellipse fill="#56bad0" cx="0.00" cy="0.00" transform="translate(222.08,212.63) rotate(69.0)" rx="1.58" ry="1.00"/>
<ellipse fill="#56bad0" cx="0.00" cy="0.00" transform="translate(284.43,212.62) rotate(98.6)" rx="1.51" ry="0.96"/>
<ellipse fill="#56bad0" cx="0.00" cy="0.00" transform="translate(319.88,212.92) rotate(129.2)" rx="1.63" ry="1.01"/>
<ellipse fill="#56bad0" cx="0.00" cy="0.00" transform="translate(186.75,213.00) rotate(51.3)" rx="1.51" ry="0.91"/>
<ellipse fill="#56bad0" cx="0.00" cy="0.00" transform="translate(213.70,213.71) rotate(68.4)" rx="1.57" ry="1.03"/>
<path fill="#56bad0" d="
  M 293.53 214.67
  A 0.55 0.55 0.0 0 1 292.92 215.00
  Q 290.64 214.56 292.72 212.46
  A 0.83 0.83 0.0 0 1 294.07 213.36
  L 293.53 214.67
  Z"
/>
<ellipse fill="#56bad0" cx="0.00" cy="0.00" transform="translate(205.45,214.51) rotate(63.5)" rx="1.64" ry="0.99"/>
<ellipse fill="#56bad0" cx="0.00" cy="0.00" transform="translate(301.26,214.53) rotate(118.5)" rx="1.67" ry="0.99"/>
<ellipse fill="#56bad0" cx="0.00" cy="0.00" transform="translate(308.71,216.23) rotate(116.6)" rx="1.65" ry="0.99"/>
<ellipse fill="#56bad0" cx="0.00" cy="0.00" transform="translate(197.91,216.25) rotate(55.1)" rx="1.62" ry="0.97"/>
<ellipse fill="#56bad0" cx="0.00" cy="0.00" transform="translate(240.55,216.79) rotate(83.7)" rx="1.43" ry="0.96"/>
<ellipse fill="#56bad0" cx="0.00" cy="0.00" transform="translate(249.04,216.67) rotate(88.0)" rx="1.49" ry="1.02"/>
<ellipse fill="#56bad0" cx="0.00" cy="0.00" transform="translate(257.48,216.67) rotate(90.1)" rx="1.38" ry="0.91"/>
<ellipse fill="#56bad0" cx="0.00" cy="0.00" transform="translate(266.02,216.77) rotate(89.9)" rx="1.46" ry="1.02"/>
<ellipse fill="#56bad0" cx="0.00" cy="0.00" transform="translate(232.27,217.63) rotate(79.6)" rx="1.58" ry="0.95"/>
<ellipse fill="#56bad0" cx="0.00" cy="0.00" transform="translate(190.74,217.78) rotate(50.3)" rx="1.57" ry="0.90"/>
<ellipse fill="#56bad0" cx="0.00" cy="0.00" transform="translate(274.14,217.62) rotate(110.2)" rx="1.49" ry="0.99"/>
<ellipse fill="#56bad0" cx="0.00" cy="0.00" transform="translate(315.96,217.69) rotate(131.4)" rx="1.55" ry="1.00"/>
<ellipse fill="#56bad0" cx="0.00" cy="0.00" transform="translate(224.36,218.52) rotate(67.2)" rx="1.46" ry="0.99"/>
<ellipse fill="#56bad0" cx="0.00" cy="0.00" transform="translate(282.19,218.50) rotate(124.7)" rx="1.47" ry="1.03"/>
<ellipse fill="#56bad0" cx="0.00" cy="0.00" transform="translate(216.50,219.32) rotate(67.6)" rx="1.56" ry="0.95"/>
<ellipse fill="#56bad0" cx="0.00" cy="0.00" transform="translate(290.15,219.28) rotate(109.2)" rx="1.55" ry="1.04"/>
<ellipse fill="#56bad0" cx="0.00" cy="0.00" transform="translate(208.63,220.04) rotate(63.3)" rx="1.62" ry="1.00"/>
<ellipse fill="#56bad0" cx="0.00" cy="0.00" transform="translate(297.91,219.94) rotate(127.6)" rx="1.72" ry="1.03"/>
<path fill="#56bad0" d="
  M 201.42 222.65
  Q 200.26 222.05 200.32 221.01
  A 0.92 0.92 0.0 0 1 201.89 220.42
  C 202.24 220.77 202.65 221.18 202.77 221.71
  Q 202.93 222.47 202.88 222.51
  Q 202.16 223.04 201.42 222.65
  Z"
/>
<ellipse fill="#56bad0" cx="0.00" cy="0.00" transform="translate(305.06,221.41) rotate(124.0)" rx="1.51" ry="1.06"/>
<path fill="#56bad0" d="
  M 311.90 220.99
  A 0.57 0.57 0.0 0 1 312.90 221.07
  Q 313.82 223.14 311.62 223.80
  A 0.74 0.73 8.1 0 1 310.79 222.70
  L 311.90 220.99
  Z"
/>
<ellipse fill="#56bad0" cx="0.00" cy="0.00" transform="translate(194.56,222.55) rotate(47.9)" rx="1.58" ry="0.90"/>
<path fill="#56bad0" d="
  M 242.20 224.14
  L 241.17 224.14
  Q 240.51 222.54 241.13 221.63
  Q 241.46 221.16 241.82 221.60
  Q 242.62 222.56 242.20 224.14
  Z"
/>
<path fill="#56bad0" d="
  M 249.86 224.18
  L 248.89 224.14
  Q 248.33 222.93 248.49 222.11
  A 0.78 0.77 23.0 0 1 249.69 221.63
  Q 250.67 222.32 249.86 224.18
  Z"
/>
<path fill="#56bad0" d="
  M 257.68 224.26
  Q 257.13 224.41 256.62 224.26
  Q 256.26 222.76 256.61 221.89
  A 0.72 0.71 49.1 0 1 257.97 221.99
  Q 258.19 222.88 257.68 224.26
  Z"
/>
<path fill="#56bad0" d="
  M 265.45 224.34
  L 264.37 224.33
  L 264.00 222.23
  A 0.59 0.59 0.0 0 1 264.58 221.54
  L 265.15 221.55
  Q 265.85 221.55 265.75 222.24
  L 265.45 224.34
  Z"
/>
<path fill="#56bad0" d="
  M 234.74 224.12
  Q 233.92 224.32 233.45 224.11
  Q 233.04 223.14 233.34 222.44
  A 0.59 0.59 0.0 0 1 234.40 222.38
  Q 234.75 222.99 234.74 224.12
  Z"
/>
<path fill="#56bad0" d="
  M 273.20 224.34
  L 272.04 224.32
  Q 271.92 222.57 272.56 222.15
  A 0.50 0.50 0.0 0 1 273.32 222.44
  Q 273.51 223.18 273.20 224.34
  Z"
/>
<path fill="#404040" d="
  M 233.45 224.11
  Q 233.92 224.32 234.74 224.12
  Q 238.00 225.08 241.17 224.14
  L 242.20 224.14
  Q 245.58 225.07 248.89 224.14
  L 249.86 224.18
  Q 253.14 224.93 256.62 224.26
  Q 257.13 224.41 257.68 224.26
  L 264.37 224.33
  L 265.45 224.34
  L 272.04 224.32
  L 273.20 224.34
  Q 276.08 225.02 278.93 224.42
  Q 279.39 224.32 279.59 223.89
  L 279.86 223.30
  A 0.44 0.44 0.0 0 1 280.69 223.36
  L 280.82 223.83
  Q 281.00 224.48 281.67 224.57
  Q 284.77 225.02 287.80 224.25
  Q 288.20 224.14 288.31 224.55
  Q 288.37 224.78 288.47 225.01
  Q 288.62 225.35 288.99 225.62
  Q 293.78 229.04 295.35 234.65
  C 295.88 236.51 295.35 239.01 296.90 241.13
  Q 297.19 241.53 296.76 241.77
  L 296.17 242.09
  A 0.74 0.73 -10.9 0 0 295.80 242.63
  Q 294.87 249.94 289.06 254.33
  Q 288.64 254.64 288.60 255.16
  L 287.53 270.51
  L 219.10 270.51
  L 218.05 255.26
  A 1.17 1.17 0.0 0 0 217.57 254.40
  Q 211.92 250.36 211.03 243.31
  Q 210.97 242.85 210.65 242.51
  L 209.61 241.39
  A 0.49 0.49 0.0 0 1 209.68 240.65
  L 210.35 240.17
  A 0.91 0.89 -18.9 0 0 210.73 239.42
  Q 210.66 230.33 217.97 225.31
  A 1.17 1.14 -13.3 0 0 218.45 224.56
  Q 218.48 224.40 218.51 224.24
  Q 218.56 223.89 218.90 224.00
  Q 221.81 224.99 224.88 224.40
  Q 225.35 224.31 225.57 223.88
  L 225.82 223.38
  Q 226.01 223.00 226.34 223.27
  Q 229.06 225.50 233.45 224.11
  Z"
/>
<ellipse fill="#56bad0" cx="0.00" cy="0.00" transform="translate(211.85,225.45) rotate(63.3)" rx="1.42" ry="1.05"/>
<ellipse fill="#56bad0" cx="0.00" cy="0.00" transform="translate(294.69,225.47) rotate(114.4)" rx="1.51" ry="0.95"/>
<ellipse fill="#56bad0" cx="0.00" cy="0.00" transform="translate(205.04,226.36) rotate(55.7)" rx="1.60" ry="1.01"/>
<ellipse fill="#56bad0" cx="0.00" cy="0.00" transform="translate(301.52,226.44) rotate(120.0)" rx="1.52" ry="1.04"/>
<ellipse fill="#56bad0" cx="0.00" cy="0.00" transform="translate(198.44,227.32) rotate(61.6)" rx="1.53" ry="0.96"/>
<ellipse fill="#56bad0" cx="0.00" cy="0.00" transform="translate(308.20,227.28) rotate(127.0)" rx="1.71" ry="0.90"/>
<path fill="#92c83e" d="
  M 149.82 346.14
  Q 156.06 364.98 159.95 384.56
  C 161.32 391.49 162.33 399.83 163.53 407.46
  A 0.68 0.67 -40.5 0 0 164.84 407.56
  C 166.77 401.68 168.59 395.91 171.23 390.12
  Q 173.80 384.48 176.11 379.28
  Q 191.42 345.90 210.52 315.75
  Q 211.20 314.67 211.31 312.77
  L 213.15 311.37
  Q 213.82 310.87 213.70 311.69
  L 210.54 333.18
  Q 204.60 368.02 194.86 401.69
  Q 193.42 406.68 196.22 402.30
  Q 202.50 392.49 211.46 382.51
  Q 221.41 371.17 232.59 362.50
  Q 233.02 362.49 233.23 362.73
  Q 233.39 362.92 233.32 363.30
  Q 231.74 371.78 229.96 380.30
  L 226.47 395.74
  Q 225.52 399.96 227.54 396.13
  L 230.73 390.08
  Q 240.94 371.53 253.05 355.65
  Q 271.97 332.80 295.58 316.13
  L 297.17 315.76
  Q 297.73 315.63 297.50 316.15
  L 295.39 320.91
  L 251.80 401.75
  A 0.32 0.32 0.0 0 0 252.28 402.16
  C 254.29 400.66 256.50 398.08 257.77 397.03
  Q 274.83 383.01 295.52 376.65
  L 304.16 374.31
  Q 304.91 374.10 304.70 374.86
  Q 301.00 387.63 295.84 399.75
  Q 295.42 400.72 295.65 401.82
  Q 294.42 402.93 293.92 404.26
  Q 293.64 405.00 294.24 404.48
  L 296.05 402.88
  Q 303.92 394.77 312.84 387.66
  Q 313.27 387.31 313.58 387.78
  Q 318.29 394.84 321.69 402.63
  Q 322.92 405.46 322.98 402.37
  Q 323.33 382.49 325.77 362.14
  Q 331.13 317.35 351.66 277.84
  Q 352.12 276.95 352.08 277.95
  Q 349.73 326.32 347.06 374.25
  Q 346.95 376.18 347.39 378.03
  Q 347.55 378.70 347.76 378.04
  Q 356.75 349.75 372.87 324.83
  Q 373.38 324.04 373.43 324.98
  Q 374.98 358.27 367.68 390.75
  A 0.54 0.53 -9.7 0 0 368.49 391.32
  L 376.91 386.05
  Q 391.36 378.49 406.94 373.32
  A 1.02 1.02 0.0 0 1 408.25 374.51
  Q 406.07 384.01 402.64 393.65
  Q 401.67 396.36 398.43 401.43
  C 397.66 402.64 397.88 404.30 397.02 405.59
  Q 394.20 409.77 392.28 414.43
  Q 392.07 414.93 392.37 415.27
  Q 392.62 415.55 392.80 415.23
  Q 396.03 409.40 401.17 405.17
  Q 404.95 402.06 406.85 399.16
  L 416.42 392.34
  A 0.43 0.43 0.0 0 1 417.10 392.66
  Q 417.86 405.14 417.55 417.49
  Q 417.41 423.23 416.42 428.21
  A 1.00 1.00 0.0 0 1 415.44 429.02
  L 124.79 428.91
  Q 123.06 428.91 122.14 427.44
  Q 111.68 410.65 101.30 392.79
  Q 82.47 360.38 68.77 325.75
  Q 68.20 324.32 69.37 325.32
  Q 91.07 343.85 110.34 365.90
  Q 122.50 379.82 133.74 394.09
  A 0.81 0.81 0.0 0 0 135.17 393.45
  Q 120.39 306.94 80.27 228.99
  A 0.40 0.40 0.0 0 1 80.92 228.53
  Q 90.95 239.33 99.71 250.27
  Q 134.11 293.19 149.82 346.14
  Z"
/>
<ellipse fill="#56bad0" cx="0.00" cy="0.00" transform="translate(208.55,231.45) rotate(54.5)" rx="1.37" ry="0.79"/>
<ellipse fill="#56bad0" cx="0.00" cy="0.00" transform="translate(297.96,231.51) rotate(118.8)" rx="1.37" ry="0.99"/>
<ellipse fill="#56bad0" cx="0.00" cy="0.00" transform="translate(202.34,232.11) rotate(55.2)" rx="1.49" ry="0.92"/>
<ellipse fill="#56bad0" cx="0.00" cy="0.00" transform="translate(304.30,232.04) rotate(123.2)" rx="1.53" ry="0.95"/>
<ellipse fill="#56bad0" cx="0.00" cy="0.00" transform="translate(300.42,236.80) rotate(124.6)" rx="1.61" ry="0.84"/>
<ellipse fill="#56bad0" cx="0.00" cy="0.00" transform="translate(206.15,236.77) rotate(50.9)" rx="1.32" ry="0.84"/>
<path fill="#7db142" d="
  M 176.11 379.28
  Q 173.80 384.48 171.23 390.12
  C 168.59 395.91 166.77 401.68 164.84 407.56
  A 0.68 0.67 -40.5 0 1 163.53 407.46
  C 162.33 399.83 161.32 391.49 159.95 384.56
  Q 156.06 364.98 149.82 346.14
  Q 150.99 345.37 151.21 344.21
  Q 159.95 298.50 176.20 254.97
  A 0.17 0.17 0.0 0 1 176.52 255.01
  C 179.64 288.19 179.79 321.00 177.41 354.22
  Q 176.53 366.47 176.11 379.28
  Z"
/>
<path fill="#fdaf17" d="
  M 219.10 270.51
  L 287.53 270.51
  C 291.52 270.66 294.84 270.62 297.13 273.26
  C 299.59 276.09 298.35 279.85 295.57 281.87
  Q 292.80 282.97 290.75 282.99
  Q 256.32 283.25 211.35 282.72
  Q 205.63 276.74 209.68 272.93
  Q 212.87 269.92 219.10 270.51
  Z"
/>
<path fill="#404040" d="
  M 211.35 282.72
  Q 256.32 283.25 290.75 282.99
  Q 292.80 282.97 295.57 281.87
  L 295.58 316.13
  Q 271.97 332.80 253.05 355.65
  C 251.45 335.10 247.54 313.48 240.84 292.60
  A 0.36 0.36 0.0 0 0 240.14 292.65
  C 239.08 298.88 238.79 306.78 238.28 311.43
  Q 235.57 335.94 233.18 360.47
  C 233.11 361.18 232.72 361.77 232.59 362.50
  Q 221.41 371.17 211.46 382.51
  Q 211.18 348.47 211.23 336.00
  Q 211.24 334.22 210.54 333.18
  L 213.70 311.69
  Q 213.82 310.87 213.15 311.37
  L 211.31 312.77
  L 211.35 282.72
  Z"
/>
<path fill="#7db142" d="
  M 253.05 355.65
  Q 240.94 371.53 230.73 390.08
  L 230.83 380.23
  Q 230.84 379.58 230.33 379.99
  L 229.96 380.30
  Q 231.74 371.78 233.32 363.30
  Q 233.39 362.92 233.23 362.73
  Q 233.02 362.49 232.59 362.50
  C 232.72 361.77 233.11 361.18 233.18 360.47
  Q 235.57 335.94 238.28 311.43
  C 238.79 306.78 239.08 298.88 240.14 292.65
  A 0.36 0.36 0.0 0 1 240.84 292.60
  C 247.54 313.48 251.45 335.10 253.05 355.65
  Z"
/>
<path fill="#7db142" d="
  M 406.85 399.16
  Q 404.95 402.06 401.17 405.17
  Q 396.03 409.40 392.80 415.23
  Q 392.62 415.55 392.37 415.27
  Q 392.07 414.93 392.28 414.43
  Q 394.20 409.77 397.02 405.59
  C 397.88 404.30 397.66 402.64 398.43 401.43
  Q 401.67 396.36 402.64 393.65
  Q 406.07 384.01 408.25 374.51
  A 1.02 1.02 0.0 0 0 406.94 373.32
  Q 391.36 378.49 376.91 386.05
  Q 376.78 364.88 377.64 344.19
  Q 377.94 336.98 379.36 327.93
  Q 380.82 318.63 381.99 308.94
  Q 382.31 306.31 383.03 308.86
  Q 391.62 339.46 394.55 371.11
  A 0.68 0.65 -80.2 0 0 394.90 371.63
  Q 395.59 371.99 396.12 371.13
  Q 407.49 352.77 422.57 336.64
  A 0.38 0.38 0.0 0 1 423.21 337.00
  L 406.85 399.16
  Z"
/>
<path fill="#404040" d="
  M 295.39 320.91
  L 295.52 376.65
  Q 274.83 383.01 257.77 397.03
  C 256.50 398.08 254.29 400.66 252.28 402.16
  A 0.32 0.32 0.0 0 1 251.80 401.75
  L 295.39 320.91
  Z"
/>
<path fill="#404040" d="
  M 230.73 390.08
  L 227.54 396.13
  Q 225.52 399.96 226.47 395.74
  L 229.96 380.30
  L 230.33 379.99
  Q 230.84 379.58 230.83 380.23
  L 230.73 390.08
  Z"
/>
<path fill="#404040" d="
  M 295.65 401.82
  Q 295.59 402.57 296.05 402.88
  L 294.24 404.48
  Q 293.64 405.00 293.92 404.26
  Q 294.42 402.93 295.65 401.82
  Z"
/>
</svg>
